G04 EAGLE Gerber RS-274X export*
G75*
%MOMM*%
%FSLAX34Y34*%
%LPD*%
%INSilkscreen Top*%
%IPPOS*%
%AMOC8*
5,1,8,0,0,1.08239X$1,22.5*%
G01*

G36*
X177163Y58367D02*
X177163Y58367D01*
X177156Y58361D01*
X177150Y58368D01*
X62850Y58368D01*
X62803Y58332D01*
X62808Y58325D01*
X62801Y58319D01*
X62801Y26681D01*
X62837Y26633D01*
X62844Y26639D01*
X62850Y26632D01*
X177150Y26632D01*
X177197Y26668D01*
X177192Y26675D01*
X177199Y26681D01*
X177199Y58319D01*
X177163Y58367D01*
G37*
%LPC*%
G36*
X65837Y29668D02*
X65837Y29668D01*
X65837Y55332D01*
X151566Y55332D01*
X151566Y29668D01*
X65837Y29668D01*
G37*
%LPD*%
G36*
X120950Y34817D02*
X120950Y34817D01*
X120945Y34825D01*
X120952Y34830D01*
X120952Y39685D01*
X123528Y39685D01*
X126794Y34803D01*
X126827Y34792D01*
X126835Y34781D01*
X130779Y34781D01*
X130786Y34787D01*
X130794Y34784D01*
X130799Y34796D01*
X130826Y34817D01*
X130812Y34836D01*
X130819Y34858D01*
X127101Y40288D01*
X128382Y40966D01*
X128386Y40975D01*
X128393Y40974D01*
X129441Y41985D01*
X129443Y41996D01*
X129451Y41998D01*
X130135Y43340D01*
X130133Y43352D01*
X130140Y43356D01*
X130370Y45042D01*
X130368Y45047D01*
X130371Y45049D01*
X130371Y45095D01*
X130369Y45097D01*
X130370Y45099D01*
X130276Y46225D01*
X130271Y46231D01*
X130274Y46236D01*
X130263Y46271D01*
X129990Y47233D01*
X129984Y47238D01*
X129986Y47243D01*
X129511Y48109D01*
X129503Y48113D01*
X129504Y48119D01*
X128838Y48854D01*
X128830Y48855D01*
X128829Y48861D01*
X127991Y49447D01*
X127983Y49446D01*
X127982Y49452D01*
X126993Y49869D01*
X126986Y49868D01*
X126984Y49872D01*
X125842Y50122D01*
X125837Y50120D01*
X125835Y50123D01*
X124541Y50207D01*
X124539Y50206D01*
X124538Y50207D01*
X117531Y50207D01*
X117484Y50171D01*
X117488Y50165D01*
X117484Y50162D01*
X117485Y50160D01*
X117482Y50158D01*
X117482Y34830D01*
X117518Y34783D01*
X117525Y34789D01*
X117531Y34781D01*
X120903Y34781D01*
X120950Y34817D01*
G37*
G36*
X89015Y34840D02*
X89015Y34840D01*
X89009Y34848D01*
X89017Y34853D01*
X89017Y39399D01*
X91528Y39399D01*
X91530Y39401D01*
X91531Y39399D01*
X92781Y39485D01*
X92785Y39489D01*
X92788Y39486D01*
X93962Y39743D01*
X93966Y39748D01*
X93970Y39745D01*
X95025Y40172D01*
X95029Y40178D01*
X95033Y40177D01*
X95944Y40767D01*
X95947Y40775D01*
X95952Y40774D01*
X96705Y41538D01*
X96706Y41546D01*
X96712Y41547D01*
X97285Y42474D01*
X97284Y42483D01*
X97290Y42485D01*
X97649Y43574D01*
X97646Y43582D01*
X97651Y43585D01*
X97769Y44809D01*
X97784Y44820D01*
X97784Y44866D01*
X97782Y44869D01*
X97783Y44870D01*
X97682Y46002D01*
X97677Y46007D01*
X97680Y46011D01*
X97605Y46272D01*
X97382Y47040D01*
X97375Y47045D01*
X97378Y47050D01*
X96885Y47958D01*
X96878Y47961D01*
X96879Y47967D01*
X96206Y48739D01*
X96198Y48741D01*
X96198Y48746D01*
X95360Y49366D01*
X95352Y49366D01*
X95351Y49371D01*
X94349Y49837D01*
X94342Y49836D01*
X94340Y49840D01*
X93183Y50128D01*
X93177Y50126D01*
X93175Y50130D01*
X91863Y50230D01*
X91861Y50229D01*
X91859Y50230D01*
X85596Y50230D01*
X85548Y50194D01*
X85554Y50187D01*
X85546Y50181D01*
X85546Y34853D01*
X85582Y34806D01*
X85590Y34812D01*
X85596Y34804D01*
X88968Y34804D01*
X89015Y34840D01*
G37*
G36*
X136792Y34817D02*
X136792Y34817D01*
X136787Y34825D01*
X136794Y34830D01*
X136794Y39497D01*
X138511Y41281D01*
X143232Y34801D01*
X143263Y34792D01*
X143271Y34781D01*
X147318Y34781D01*
X147326Y34787D01*
X147335Y34784D01*
X147339Y34797D01*
X147365Y34817D01*
X147350Y34836D01*
X147357Y34860D01*
X140855Y43650D01*
X143325Y46224D01*
X147067Y50124D01*
X147069Y50134D01*
X147070Y50135D01*
X147069Y50137D01*
X147079Y50145D01*
X147071Y50156D01*
X147074Y50183D01*
X147048Y50186D01*
X147032Y50207D01*
X142963Y50207D01*
X142940Y50190D01*
X142927Y50192D01*
X139306Y46291D01*
X136794Y43586D01*
X136794Y50158D01*
X136758Y50206D01*
X136751Y50200D01*
X136745Y50207D01*
X133373Y50207D01*
X133326Y50171D01*
X133330Y50165D01*
X133326Y50162D01*
X133327Y50160D01*
X133324Y50158D01*
X133324Y34830D01*
X133360Y34783D01*
X133367Y34789D01*
X133373Y34781D01*
X136745Y34781D01*
X136792Y34817D01*
G37*
G36*
X78253Y34609D02*
X78253Y34609D01*
X78258Y34612D01*
X78261Y34610D01*
X79343Y34851D01*
X79347Y34856D01*
X79351Y34853D01*
X80304Y35242D01*
X80308Y35248D01*
X80312Y35246D01*
X81130Y35772D01*
X81133Y35780D01*
X81139Y35779D01*
X81798Y36453D01*
X81799Y36462D01*
X81805Y36462D01*
X82300Y37274D01*
X82299Y37282D01*
X82305Y37284D01*
X82614Y38235D01*
X82611Y38243D01*
X82616Y38246D01*
X82719Y39318D01*
X82717Y39321D01*
X82719Y39322D01*
X82719Y39414D01*
X82717Y39416D01*
X82719Y39418D01*
X82640Y40354D01*
X82635Y40360D01*
X82638Y40364D01*
X82397Y41154D01*
X82390Y41159D01*
X82392Y41165D01*
X81995Y41840D01*
X81987Y41844D01*
X81988Y41849D01*
X81437Y42431D01*
X81427Y42433D01*
X81426Y42439D01*
X79895Y43354D01*
X79887Y43353D01*
X79885Y43358D01*
X77804Y44044D01*
X77803Y44044D01*
X77802Y44045D01*
X76170Y44501D01*
X75164Y44908D01*
X74668Y45383D01*
X74535Y46014D01*
X74535Y46049D01*
X74581Y46247D01*
X74653Y46554D01*
X75008Y46963D01*
X75608Y47244D01*
X76452Y47342D01*
X77425Y47242D01*
X78398Y46946D01*
X79726Y46215D01*
X80406Y45840D01*
X80464Y45849D01*
X80464Y45855D01*
X80470Y45855D01*
X80728Y46230D01*
X82219Y48393D01*
X82218Y48411D01*
X82219Y48412D01*
X82218Y48414D01*
X82216Y48452D01*
X82206Y48452D01*
X82206Y48462D01*
X80963Y49294D01*
X80957Y49293D01*
X80956Y49298D01*
X79604Y49906D01*
X79597Y49904D01*
X79596Y49909D01*
X78116Y50285D01*
X78110Y50282D01*
X78108Y50286D01*
X76490Y50413D01*
X76485Y50410D01*
X76482Y50413D01*
X75351Y50329D01*
X75346Y50325D01*
X75343Y50328D01*
X74314Y50080D01*
X74310Y50075D01*
X74306Y50078D01*
X73392Y49677D01*
X73388Y49671D01*
X73383Y49673D01*
X72606Y49136D01*
X72604Y49128D01*
X72598Y49129D01*
X71972Y48458D01*
X71971Y48451D01*
X71966Y48450D01*
X71495Y47669D01*
X71496Y47661D01*
X71490Y47659D01*
X71197Y46766D01*
X71197Y46765D01*
X71196Y46764D01*
X71199Y46760D01*
X71199Y46758D01*
X71194Y46755D01*
X71147Y46263D01*
X71099Y45751D01*
X71101Y45748D01*
X71099Y45746D01*
X71099Y45700D01*
X71101Y45698D01*
X71099Y45696D01*
X71192Y44652D01*
X71197Y44646D01*
X71194Y44642D01*
X71467Y43777D01*
X71474Y43772D01*
X71472Y43766D01*
X71908Y43061D01*
X71916Y43058D01*
X71915Y43052D01*
X72497Y42476D01*
X72507Y42475D01*
X72508Y42468D01*
X74108Y41599D01*
X74115Y41601D01*
X74117Y41596D01*
X76232Y40956D01*
X76232Y40955D01*
X77795Y40499D01*
X78732Y40070D01*
X79173Y39618D01*
X79294Y39054D01*
X79294Y39020D01*
X79153Y38430D01*
X78732Y37992D01*
X78051Y37711D01*
X77126Y37612D01*
X75873Y37738D01*
X74722Y38111D01*
X73636Y38698D01*
X72571Y39465D01*
X72512Y39464D01*
X72512Y39457D01*
X72505Y39457D01*
X70516Y37068D01*
X70516Y37059D01*
X70511Y37055D01*
X70515Y37049D01*
X70513Y37009D01*
X70524Y37008D01*
X70524Y36997D01*
X71978Y35909D01*
X71986Y35909D01*
X71987Y35904D01*
X73596Y35140D01*
X73603Y35142D01*
X73604Y35137D01*
X75307Y34684D01*
X75313Y34686D01*
X75316Y34682D01*
X77053Y34530D01*
X77058Y34533D01*
X77061Y34530D01*
X78253Y34609D01*
G37*
%LPC*%
G36*
X157138Y34880D02*
X157138Y34880D01*
X161291Y40932D01*
X161292Y40932D01*
X162435Y42598D01*
X162432Y42646D01*
X162435Y42653D01*
X157366Y50109D01*
X161190Y50109D01*
X164399Y45159D01*
X164402Y45158D01*
X164403Y45154D01*
X164412Y45154D01*
X164454Y45139D01*
X164461Y45158D01*
X164481Y45159D01*
X167713Y50109D01*
X171422Y50109D01*
X166354Y42699D01*
X166356Y42651D01*
X166354Y42644D01*
X167522Y40932D01*
X171650Y34880D01*
X167804Y34880D01*
X164378Y40115D01*
X164374Y40117D01*
X164374Y40121D01*
X164365Y40120D01*
X164322Y40135D01*
X164316Y40117D01*
X164296Y40115D01*
X160847Y34880D01*
X157138Y34880D01*
G37*
%LPD*%
G36*
X102390Y34810D02*
X102390Y34810D01*
X102398Y34812D01*
X106993Y46084D01*
X111588Y34812D01*
X111628Y34788D01*
X111633Y34781D01*
X115165Y34781D01*
X115168Y34784D01*
X115171Y34782D01*
X115176Y34789D01*
X115213Y34817D01*
X115201Y34833D01*
X115210Y34850D01*
X110346Y46277D01*
X108638Y50292D01*
X108598Y50315D01*
X108593Y50322D01*
X105484Y50322D01*
X105447Y50294D01*
X105439Y50292D01*
X103729Y46277D01*
X98866Y34850D01*
X98867Y34846D01*
X98864Y34844D01*
X98870Y34837D01*
X98881Y34792D01*
X98900Y34797D01*
X98912Y34781D01*
X102352Y34781D01*
X102390Y34810D01*
G37*
G36*
X295509Y53258D02*
X295509Y53258D01*
X295516Y53253D01*
X296116Y53453D01*
X296119Y53458D01*
X296122Y53456D01*
X297322Y54056D01*
X297327Y54066D01*
X297335Y54065D01*
X297835Y54565D01*
X297835Y54569D01*
X297838Y54569D01*
X298238Y55069D01*
X298239Y55073D01*
X298241Y55073D01*
X298641Y55673D01*
X298641Y55677D01*
X298644Y55678D01*
X298944Y56278D01*
X298943Y56283D01*
X298947Y56284D01*
X299147Y56884D01*
X299145Y56891D01*
X299149Y56893D01*
X299349Y58293D01*
X299344Y58302D01*
X299349Y58307D01*
X299249Y59007D01*
X299248Y59008D01*
X299249Y59008D01*
X299149Y59608D01*
X299141Y59615D01*
X299144Y59622D01*
X298544Y60822D01*
X298540Y60824D01*
X298541Y60827D01*
X298141Y61427D01*
X298131Y61431D01*
X298131Y61438D01*
X297631Y61838D01*
X297032Y62338D01*
X297026Y62338D01*
X297025Y62342D01*
X296525Y62642D01*
X296516Y62641D01*
X296514Y62647D01*
X295815Y62847D01*
X295216Y63047D01*
X295205Y63043D01*
X295200Y63049D01*
X294100Y63049D01*
X294096Y63046D01*
X294093Y63049D01*
X293393Y62949D01*
X293388Y62944D01*
X293384Y62947D01*
X292784Y62747D01*
X292781Y62742D01*
X292778Y62744D01*
X292178Y62444D01*
X292176Y62440D01*
X292173Y62441D01*
X291573Y62041D01*
X291570Y62034D01*
X291565Y62035D01*
X291065Y61535D01*
X291065Y61531D01*
X291062Y61531D01*
X290662Y61031D01*
X290661Y61023D01*
X290656Y61022D01*
X290056Y59822D01*
X290057Y59817D01*
X290056Y59817D01*
X290053Y59816D01*
X289853Y59216D01*
X289857Y59205D01*
X289851Y59200D01*
X289851Y58503D01*
X289751Y57807D01*
X289756Y57798D01*
X289751Y57793D01*
X289851Y57093D01*
X289856Y57088D01*
X289853Y57084D01*
X290053Y56484D01*
X290058Y56481D01*
X290056Y56478D01*
X290656Y55278D01*
X290663Y55275D01*
X290662Y55269D01*
X291062Y54769D01*
X291069Y54767D01*
X291068Y54762D01*
X291668Y54262D01*
X291669Y54262D01*
X292169Y53862D01*
X292177Y53861D01*
X292178Y53856D01*
X292778Y53556D01*
X292783Y53557D01*
X292784Y53553D01*
X293384Y53353D01*
X293391Y53355D01*
X293393Y53351D01*
X294093Y53251D01*
X294098Y53254D01*
X294100Y53251D01*
X295500Y53251D01*
X295509Y53258D01*
G37*
G36*
X257409Y23258D02*
X257409Y23258D01*
X257416Y23253D01*
X258016Y23453D01*
X258019Y23458D01*
X258022Y23456D01*
X259222Y24056D01*
X259227Y24066D01*
X259235Y24065D01*
X260235Y25065D01*
X260236Y25077D01*
X260244Y25078D01*
X260844Y26278D01*
X260843Y26283D01*
X260847Y26284D01*
X261047Y26884D01*
X261046Y26886D01*
X261047Y26886D01*
X261247Y27586D01*
X261244Y27596D01*
X261249Y27600D01*
X261249Y28300D01*
X261246Y28304D01*
X261249Y28307D01*
X261149Y29007D01*
X261148Y29008D01*
X261149Y29008D01*
X261049Y29608D01*
X261044Y29612D01*
X261047Y29616D01*
X260847Y30216D01*
X260839Y30221D01*
X260841Y30227D01*
X260041Y31427D01*
X260031Y31431D01*
X260031Y31438D01*
X259533Y31837D01*
X259035Y32335D01*
X259023Y32336D01*
X259022Y32344D01*
X258422Y32644D01*
X258417Y32643D01*
X258416Y32647D01*
X257816Y32847D01*
X257814Y32846D01*
X257814Y32847D01*
X257114Y33047D01*
X257104Y33044D01*
X257100Y33049D01*
X256000Y33049D01*
X255996Y33046D01*
X255993Y33049D01*
X255293Y32949D01*
X255288Y32944D01*
X255284Y32947D01*
X254684Y32747D01*
X254681Y32742D01*
X254678Y32744D01*
X254078Y32444D01*
X254075Y32437D01*
X254069Y32438D01*
X253569Y32038D01*
X253568Y32034D01*
X253565Y32035D01*
X252565Y31035D01*
X252564Y31023D01*
X252556Y31022D01*
X251956Y29822D01*
X251957Y29817D01*
X251953Y29814D01*
X251956Y29811D01*
X251951Y29808D01*
X251851Y29208D01*
X251852Y29207D01*
X251851Y29207D01*
X251751Y28507D01*
X251754Y28502D01*
X251751Y28500D01*
X251751Y27800D01*
X251754Y27796D01*
X251751Y27793D01*
X251851Y27093D01*
X251852Y27092D01*
X251851Y27092D01*
X251951Y26492D01*
X251959Y26485D01*
X251956Y26478D01*
X252556Y25278D01*
X252566Y25273D01*
X252565Y25265D01*
X253565Y24265D01*
X253569Y24265D01*
X253569Y24262D01*
X254069Y23862D01*
X254077Y23861D01*
X254078Y23856D01*
X254678Y23556D01*
X254685Y23557D01*
X254686Y23553D01*
X255386Y23353D01*
X255390Y23354D01*
X255392Y23351D01*
X255992Y23251D01*
X255997Y23254D01*
X256000Y23251D01*
X257400Y23251D01*
X257409Y23258D01*
G37*
G36*
X231609Y53258D02*
X231609Y53258D01*
X231616Y53253D01*
X232216Y53453D01*
X232219Y53458D01*
X232222Y53456D01*
X233422Y54056D01*
X233427Y54066D01*
X233435Y54065D01*
X234435Y55065D01*
X234436Y55077D01*
X234444Y55078D01*
X235044Y56278D01*
X235043Y56283D01*
X235047Y56284D01*
X235247Y56884D01*
X235245Y56891D01*
X235249Y56893D01*
X235449Y58293D01*
X235444Y58302D01*
X235449Y58307D01*
X235349Y59007D01*
X235348Y59008D01*
X235349Y59008D01*
X235249Y59608D01*
X235244Y59612D01*
X235247Y59616D01*
X235047Y60216D01*
X235039Y60221D01*
X235041Y60227D01*
X234241Y61427D01*
X234231Y61431D01*
X234231Y61438D01*
X233733Y61837D01*
X233235Y62335D01*
X233223Y62336D01*
X233222Y62344D01*
X232622Y62644D01*
X232617Y62643D01*
X232616Y62647D01*
X232016Y62847D01*
X232014Y62846D01*
X232014Y62847D01*
X231314Y63047D01*
X231304Y63044D01*
X231300Y63049D01*
X230200Y63049D01*
X230196Y63046D01*
X230193Y63049D01*
X229493Y62949D01*
X229488Y62944D01*
X229484Y62947D01*
X228884Y62747D01*
X228881Y62742D01*
X228878Y62744D01*
X228278Y62444D01*
X228275Y62437D01*
X228269Y62438D01*
X227769Y62038D01*
X227768Y62038D01*
X227168Y61538D01*
X227167Y61531D01*
X227162Y61531D01*
X226762Y61031D01*
X226761Y61023D01*
X226756Y61022D01*
X226156Y59822D01*
X226157Y59817D01*
X226153Y59814D01*
X226156Y59811D01*
X226151Y59808D01*
X226051Y59208D01*
X226052Y59207D01*
X226051Y59207D01*
X225951Y58507D01*
X225954Y58502D01*
X225951Y58500D01*
X225951Y57800D01*
X225954Y57796D01*
X225951Y57793D01*
X226051Y57093D01*
X226052Y57092D01*
X226051Y57092D01*
X226151Y56492D01*
X226159Y56485D01*
X226156Y56478D01*
X226756Y55278D01*
X226766Y55273D01*
X226765Y55265D01*
X227765Y54265D01*
X227769Y54265D01*
X227769Y54262D01*
X228269Y53862D01*
X228277Y53861D01*
X228278Y53856D01*
X228878Y53556D01*
X228885Y53557D01*
X228886Y53553D01*
X229586Y53353D01*
X229590Y53354D01*
X229592Y53351D01*
X230192Y53251D01*
X230197Y53254D01*
X230200Y53251D01*
X231600Y53251D01*
X231609Y53258D01*
G37*
G36*
X251904Y53254D02*
X251904Y53254D01*
X251907Y53251D01*
X252607Y53351D01*
X252612Y53356D01*
X252616Y53353D01*
X253216Y53553D01*
X253219Y53558D01*
X253222Y53556D01*
X254422Y54156D01*
X254427Y54166D01*
X254435Y54165D01*
X254935Y54665D01*
X254935Y54669D01*
X254938Y54669D01*
X255338Y55169D01*
X255339Y55173D01*
X255341Y55173D01*
X255741Y55773D01*
X255741Y55777D01*
X255744Y55778D01*
X256044Y56378D01*
X256043Y56385D01*
X256048Y56389D01*
X256047Y56391D01*
X256049Y56392D01*
X256149Y56992D01*
X256148Y56993D01*
X256149Y56993D01*
X256249Y57693D01*
X256246Y57698D01*
X256249Y57700D01*
X256249Y58400D01*
X256246Y58404D01*
X256249Y58407D01*
X256049Y59807D01*
X256039Y59817D01*
X256042Y59825D01*
X255742Y60325D01*
X255741Y60326D01*
X255741Y60327D01*
X255341Y60927D01*
X255338Y60928D01*
X255338Y60931D01*
X254938Y61431D01*
X254931Y61433D01*
X254932Y61438D01*
X254332Y61938D01*
X254326Y61938D01*
X254325Y61942D01*
X253825Y62242D01*
X253820Y62242D01*
X253819Y62245D01*
X253119Y62545D01*
X253116Y62545D01*
X253116Y62547D01*
X252516Y62747D01*
X252509Y62745D01*
X252507Y62749D01*
X251807Y62849D01*
X251802Y62846D01*
X251800Y62849D01*
X248600Y62849D01*
X248585Y62838D01*
X248575Y62842D01*
X248075Y62542D01*
X248064Y62514D01*
X248051Y62508D01*
X247951Y61908D01*
X247954Y61903D01*
X247951Y61900D01*
X247951Y54400D01*
X247954Y54396D01*
X247951Y54393D01*
X248051Y53693D01*
X248067Y53678D01*
X248065Y53665D01*
X248365Y53365D01*
X248388Y53362D01*
X248394Y53351D01*
X249194Y53251D01*
X249198Y53253D01*
X249200Y53251D01*
X251900Y53251D01*
X251904Y53254D01*
G37*
G36*
X233004Y38254D02*
X233004Y38254D01*
X233007Y38251D01*
X233707Y38351D01*
X233729Y38373D01*
X233742Y38375D01*
X234042Y38875D01*
X234042Y38878D01*
X234040Y38893D01*
X234049Y38900D01*
X234049Y43581D01*
X234063Y43568D01*
X235861Y41170D01*
X235869Y41168D01*
X235869Y41162D01*
X236369Y40762D01*
X236388Y40761D01*
X236393Y40751D01*
X237093Y40651D01*
X237115Y40663D01*
X237127Y40659D01*
X237727Y41059D01*
X237731Y41070D01*
X237739Y41070D01*
X238039Y41470D01*
X238039Y41472D01*
X238040Y41472D01*
X239551Y43643D01*
X239551Y39700D01*
X239554Y39696D01*
X239551Y39693D01*
X239651Y38993D01*
X239657Y38987D01*
X239654Y38982D01*
X239854Y38482D01*
X239880Y38466D01*
X239884Y38453D01*
X240484Y38253D01*
X240495Y38257D01*
X240500Y38251D01*
X241300Y38251D01*
X241315Y38262D01*
X241325Y38258D01*
X241825Y38558D01*
X241833Y38577D01*
X241840Y38582D01*
X241837Y38586D01*
X241849Y38593D01*
X241949Y39293D01*
X241946Y39297D01*
X241949Y39299D01*
X242049Y46799D01*
X242042Y46809D01*
X242047Y46816D01*
X241847Y47416D01*
X241830Y47427D01*
X241830Y47439D01*
X241430Y47739D01*
X241411Y47739D01*
X241405Y47749D01*
X240505Y47849D01*
X240492Y47841D01*
X240484Y47847D01*
X239884Y47647D01*
X239873Y47630D01*
X239861Y47630D01*
X238661Y46030D01*
X237170Y44042D01*
X236618Y43858D01*
X234239Y47030D01*
X234238Y47030D01*
X234238Y47031D01*
X233838Y47531D01*
X233824Y47534D01*
X233822Y47544D01*
X233222Y47844D01*
X233206Y47841D01*
X233200Y47849D01*
X232400Y47849D01*
X232385Y47838D01*
X232375Y47842D01*
X231875Y47542D01*
X231866Y47520D01*
X231853Y47516D01*
X231653Y46916D01*
X231657Y46905D01*
X231651Y46900D01*
X231651Y39400D01*
X231654Y39395D01*
X231651Y39392D01*
X231751Y38792D01*
X231764Y38780D01*
X231762Y38769D01*
X232162Y38269D01*
X232192Y38262D01*
X232200Y38251D01*
X233000Y38251D01*
X233004Y38254D01*
G37*
G36*
X228804Y23254D02*
X228804Y23254D01*
X228807Y23251D01*
X229507Y23351D01*
X229529Y23373D01*
X229542Y23375D01*
X229842Y23875D01*
X229842Y23878D01*
X229840Y23893D01*
X229849Y23900D01*
X229849Y28581D01*
X229863Y28568D01*
X231661Y26170D01*
X231669Y26168D01*
X231669Y26162D01*
X232169Y25762D01*
X232188Y25761D01*
X232193Y25751D01*
X232893Y25651D01*
X232915Y25663D01*
X232927Y25659D01*
X233527Y26059D01*
X233531Y26070D01*
X233539Y26070D01*
X233839Y26470D01*
X233839Y26472D01*
X233840Y26472D01*
X235351Y28643D01*
X235351Y24700D01*
X235354Y24696D01*
X235351Y24693D01*
X235451Y23993D01*
X235457Y23987D01*
X235454Y23982D01*
X235654Y23482D01*
X235680Y23466D01*
X235684Y23453D01*
X236284Y23253D01*
X236295Y23257D01*
X236300Y23251D01*
X237100Y23251D01*
X237115Y23262D01*
X237125Y23258D01*
X237625Y23558D01*
X237633Y23577D01*
X237640Y23582D01*
X237637Y23586D01*
X237649Y23593D01*
X237749Y24293D01*
X237746Y24297D01*
X237749Y24299D01*
X237849Y31799D01*
X237842Y31809D01*
X237847Y31816D01*
X237647Y32416D01*
X237630Y32427D01*
X237630Y32439D01*
X237230Y32739D01*
X237211Y32739D01*
X237205Y32749D01*
X236305Y32849D01*
X236292Y32841D01*
X236284Y32847D01*
X235684Y32647D01*
X235673Y32630D01*
X235661Y32630D01*
X234461Y31030D01*
X232970Y29042D01*
X232418Y28858D01*
X230039Y32030D01*
X230038Y32030D01*
X230038Y32031D01*
X229638Y32531D01*
X229624Y32534D01*
X229622Y32544D01*
X229022Y32844D01*
X229006Y32841D01*
X229000Y32849D01*
X228200Y32849D01*
X228185Y32838D01*
X228175Y32842D01*
X227675Y32542D01*
X227666Y32520D01*
X227653Y32516D01*
X227453Y31916D01*
X227457Y31905D01*
X227451Y31900D01*
X227451Y24400D01*
X227454Y24395D01*
X227451Y24392D01*
X227551Y23792D01*
X227564Y23780D01*
X227562Y23769D01*
X227962Y23269D01*
X227992Y23262D01*
X228000Y23251D01*
X228800Y23251D01*
X228804Y23254D01*
G37*
G36*
X220704Y38254D02*
X220704Y38254D01*
X220707Y38251D01*
X221407Y38351D01*
X221429Y38373D01*
X221442Y38375D01*
X221742Y38875D01*
X221742Y38878D01*
X221740Y38893D01*
X221749Y38900D01*
X221749Y43620D01*
X221867Y43561D01*
X223560Y41172D01*
X223572Y41168D01*
X223573Y41159D01*
X224173Y40759D01*
X224187Y40760D01*
X224192Y40751D01*
X224792Y40651D01*
X224815Y40663D01*
X224827Y40659D01*
X225427Y41059D01*
X225431Y41070D01*
X225439Y41070D01*
X225739Y41470D01*
X225739Y41471D01*
X225740Y41471D01*
X227351Y43651D01*
X227351Y39000D01*
X227362Y38985D01*
X227358Y38975D01*
X227658Y38475D01*
X227680Y38466D01*
X227684Y38453D01*
X228284Y38253D01*
X228295Y38257D01*
X228300Y38251D01*
X229000Y38251D01*
X229015Y38262D01*
X229025Y38258D01*
X229525Y38558D01*
X229533Y38577D01*
X229540Y38582D01*
X229539Y38583D01*
X229547Y38586D01*
X229747Y39286D01*
X229744Y39296D01*
X229749Y39300D01*
X229749Y46800D01*
X229746Y46805D01*
X229749Y46808D01*
X229649Y47408D01*
X229627Y47429D01*
X229625Y47442D01*
X229125Y47742D01*
X229111Y47741D01*
X229106Y47749D01*
X228306Y47849D01*
X228293Y47841D01*
X228284Y47847D01*
X227684Y47647D01*
X227673Y47631D01*
X227662Y47631D01*
X226362Y46031D01*
X226362Y46030D01*
X226361Y46030D01*
X224869Y44041D01*
X224417Y43860D01*
X222039Y47030D01*
X222034Y47031D01*
X222035Y47035D01*
X221535Y47535D01*
X221523Y47536D01*
X221522Y47544D01*
X220922Y47844D01*
X220906Y47841D01*
X220900Y47849D01*
X220100Y47849D01*
X220085Y47838D01*
X220075Y47842D01*
X219575Y47542D01*
X219564Y47514D01*
X219551Y47508D01*
X219451Y46908D01*
X219454Y46903D01*
X219451Y46900D01*
X219451Y38800D01*
X219465Y38782D01*
X219462Y38769D01*
X219862Y38269D01*
X219892Y38262D01*
X219900Y38251D01*
X220700Y38251D01*
X220704Y38254D01*
G37*
G36*
X216504Y23254D02*
X216504Y23254D01*
X216507Y23251D01*
X217207Y23351D01*
X217229Y23373D01*
X217242Y23375D01*
X217542Y23875D01*
X217542Y23878D01*
X217540Y23893D01*
X217549Y23900D01*
X217549Y28620D01*
X217667Y28561D01*
X219360Y26172D01*
X219372Y26168D01*
X219373Y26159D01*
X219973Y25759D01*
X219987Y25760D01*
X219992Y25751D01*
X220592Y25651D01*
X220615Y25663D01*
X220627Y25659D01*
X221227Y26059D01*
X221231Y26070D01*
X221239Y26070D01*
X221539Y26470D01*
X221539Y26471D01*
X221540Y26471D01*
X223151Y28651D01*
X223151Y24000D01*
X223162Y23985D01*
X223158Y23975D01*
X223458Y23475D01*
X223480Y23466D01*
X223484Y23453D01*
X224084Y23253D01*
X224095Y23257D01*
X224100Y23251D01*
X224800Y23251D01*
X224815Y23262D01*
X224825Y23258D01*
X225325Y23558D01*
X225333Y23577D01*
X225340Y23582D01*
X225339Y23583D01*
X225347Y23586D01*
X225547Y24286D01*
X225544Y24296D01*
X225549Y24300D01*
X225549Y31800D01*
X225546Y31805D01*
X225549Y31808D01*
X225449Y32408D01*
X225427Y32429D01*
X225425Y32442D01*
X224925Y32742D01*
X224911Y32741D01*
X224906Y32749D01*
X224106Y32849D01*
X224093Y32841D01*
X224084Y32847D01*
X223484Y32647D01*
X223473Y32631D01*
X223462Y32631D01*
X222162Y31031D01*
X222162Y31030D01*
X222161Y31030D01*
X220669Y29041D01*
X220217Y28860D01*
X217839Y32030D01*
X217834Y32031D01*
X217835Y32035D01*
X217335Y32535D01*
X217323Y32536D01*
X217322Y32544D01*
X216722Y32844D01*
X216706Y32841D01*
X216700Y32849D01*
X215900Y32849D01*
X215885Y32838D01*
X215875Y32842D01*
X215375Y32542D01*
X215364Y32514D01*
X215351Y32508D01*
X215251Y31908D01*
X215254Y31903D01*
X215251Y31900D01*
X215251Y23800D01*
X215265Y23782D01*
X215262Y23769D01*
X215662Y23269D01*
X215692Y23262D01*
X215700Y23251D01*
X216500Y23251D01*
X216504Y23254D01*
G37*
G36*
X303305Y53351D02*
X303305Y53351D01*
X303322Y53367D01*
X303335Y53365D01*
X303735Y53765D01*
X303736Y53777D01*
X303740Y53779D01*
X303737Y53783D01*
X303738Y53786D01*
X303749Y53792D01*
X303849Y54392D01*
X303846Y54397D01*
X303849Y54400D01*
X303849Y55767D01*
X304309Y55951D01*
X305670Y55951D01*
X306055Y55179D01*
X306755Y53580D01*
X306776Y53569D01*
X306778Y53556D01*
X307378Y53256D01*
X307399Y53260D01*
X307408Y53251D01*
X308008Y53351D01*
X308017Y53361D01*
X308024Y53357D01*
X308724Y53757D01*
X308733Y53778D01*
X308746Y53782D01*
X308946Y54282D01*
X308940Y54303D01*
X308947Y54314D01*
X308747Y55014D01*
X308746Y55015D01*
X308747Y55016D01*
X308647Y55316D01*
X308643Y55318D01*
X308645Y55321D01*
X308049Y56611D01*
X308049Y57083D01*
X308438Y57569D01*
X308439Y57577D01*
X308444Y57578D01*
X308744Y58178D01*
X308742Y58189D01*
X308749Y58193D01*
X308949Y59593D01*
X308944Y59602D01*
X308949Y59607D01*
X308849Y60307D01*
X308841Y60315D01*
X308844Y60322D01*
X308244Y61522D01*
X308231Y61529D01*
X308231Y61538D01*
X307731Y61938D01*
X307712Y61939D01*
X307737Y61967D01*
X307741Y62027D01*
X307728Y62028D01*
X307727Y62041D01*
X307127Y62441D01*
X307123Y62441D01*
X307122Y62444D01*
X306522Y62744D01*
X306512Y62742D01*
X306508Y62749D01*
X305908Y62849D01*
X305907Y62848D01*
X305907Y62849D01*
X305207Y62949D01*
X305202Y62946D01*
X305200Y62949D01*
X302400Y62949D01*
X302391Y62942D01*
X302384Y62947D01*
X301784Y62747D01*
X301771Y62727D01*
X301758Y62725D01*
X301458Y62225D01*
X301460Y62207D01*
X301451Y62200D01*
X301451Y54000D01*
X301459Y53989D01*
X301454Y53982D01*
X301654Y53482D01*
X301682Y53465D01*
X301686Y53453D01*
X302386Y53253D01*
X302399Y53258D01*
X302405Y53251D01*
X303305Y53351D01*
G37*
G36*
X201308Y38257D02*
X201308Y38257D01*
X201314Y38253D01*
X202014Y38453D01*
X202018Y38458D01*
X202022Y38456D01*
X202622Y38756D01*
X202625Y38763D01*
X202631Y38762D01*
X203131Y39162D01*
X203133Y39169D01*
X203138Y39169D01*
X203538Y39669D01*
X203539Y39674D01*
X203542Y39675D01*
X203842Y40175D01*
X203841Y40183D01*
X203847Y40184D01*
X204047Y40784D01*
X204046Y40786D01*
X204047Y40786D01*
X204247Y41486D01*
X204247Y41487D01*
X204248Y41488D01*
X204246Y41490D01*
X204246Y41491D01*
X204249Y41493D01*
X204449Y42893D01*
X204444Y42901D01*
X204449Y42906D01*
X204349Y43703D01*
X204349Y44300D01*
X204346Y44304D01*
X204349Y44307D01*
X204249Y45007D01*
X204206Y45049D01*
X204202Y45045D01*
X204200Y45047D01*
X204191Y45047D01*
X204190Y45048D01*
X204144Y45038D01*
X204049Y45707D01*
X204041Y45715D01*
X204044Y45722D01*
X203444Y46922D01*
X203431Y46929D01*
X203431Y46938D01*
X202931Y47338D01*
X202332Y47838D01*
X202318Y47838D01*
X202316Y47847D01*
X201716Y48047D01*
X201710Y48045D01*
X201708Y48049D01*
X201108Y48149D01*
X201103Y48146D01*
X201100Y48149D01*
X200300Y48149D01*
X200295Y48146D01*
X200292Y48149D01*
X199692Y48049D01*
X199685Y48041D01*
X199678Y48044D01*
X198478Y47444D01*
X198471Y47430D01*
X198461Y47430D01*
X198161Y47030D01*
X198161Y47026D01*
X198158Y47025D01*
X197858Y46525D01*
X197858Y46522D01*
X197856Y46522D01*
X197556Y45922D01*
X197557Y45915D01*
X197553Y45914D01*
X197353Y45215D01*
X197153Y44616D01*
X197155Y44609D01*
X197151Y44607D01*
X197051Y43907D01*
X197054Y43902D01*
X197051Y43900D01*
X197051Y42400D01*
X197054Y42396D01*
X197051Y42393D01*
X197151Y41693D01*
X197152Y41692D01*
X197151Y41692D01*
X197251Y41092D01*
X197256Y41088D01*
X197253Y41084D01*
X197453Y40484D01*
X197456Y40483D01*
X197455Y40481D01*
X197755Y39781D01*
X197763Y39776D01*
X197762Y39769D01*
X198162Y39269D01*
X198169Y39267D01*
X198169Y39262D01*
X198669Y38862D01*
X198673Y38861D01*
X198673Y38859D01*
X199273Y38459D01*
X199282Y38460D01*
X199284Y38453D01*
X199884Y38253D01*
X199895Y38257D01*
X199900Y38251D01*
X201300Y38251D01*
X201308Y38257D01*
G37*
G36*
X264809Y23258D02*
X264809Y23258D01*
X264816Y23253D01*
X265416Y23453D01*
X265429Y23473D01*
X265442Y23475D01*
X265742Y23975D01*
X265740Y23993D01*
X265749Y24000D01*
X265749Y28552D01*
X269261Y23870D01*
X269263Y23870D01*
X269262Y23868D01*
X269762Y23268D01*
X269792Y23262D01*
X269800Y23251D01*
X270500Y23251D01*
X270504Y23254D01*
X270506Y23251D01*
X271306Y23351D01*
X271322Y23367D01*
X271335Y23365D01*
X271735Y23765D01*
X271736Y23777D01*
X271740Y23779D01*
X271737Y23783D01*
X271738Y23786D01*
X271749Y23792D01*
X271849Y24392D01*
X271846Y24397D01*
X271849Y24400D01*
X271849Y31200D01*
X271846Y31204D01*
X271849Y31207D01*
X271749Y31907D01*
X271748Y31908D01*
X271749Y31908D01*
X271649Y32508D01*
X271625Y32531D01*
X271622Y32544D01*
X271022Y32844D01*
X271006Y32841D01*
X271000Y32849D01*
X270300Y32849D01*
X270291Y32842D01*
X270284Y32847D01*
X269684Y32647D01*
X269666Y32620D01*
X269653Y32616D01*
X269453Y32016D01*
X269457Y32005D01*
X269451Y32000D01*
X269451Y31301D01*
X269354Y27449D01*
X267940Y29429D01*
X267939Y29429D01*
X267940Y29429D01*
X265940Y32129D01*
X265934Y32131D01*
X265935Y32135D01*
X265435Y32635D01*
X265417Y32637D01*
X265414Y32647D01*
X264714Y32847D01*
X264704Y32844D01*
X264700Y32849D01*
X264000Y32849D01*
X263982Y32835D01*
X263969Y32838D01*
X263469Y32438D01*
X263463Y32413D01*
X263451Y32407D01*
X263351Y31707D01*
X263354Y31702D01*
X263351Y31700D01*
X263351Y24300D01*
X263354Y24295D01*
X263351Y24292D01*
X263451Y23692D01*
X263467Y23677D01*
X263465Y23665D01*
X263865Y23265D01*
X263892Y23262D01*
X263900Y23251D01*
X264800Y23251D01*
X264809Y23258D01*
G37*
G36*
X239009Y53258D02*
X239009Y53258D01*
X239016Y53253D01*
X239616Y53453D01*
X239629Y53473D01*
X239642Y53475D01*
X239942Y53975D01*
X239940Y53993D01*
X239949Y54000D01*
X239949Y58552D01*
X243461Y53870D01*
X243463Y53870D01*
X243462Y53868D01*
X243962Y53268D01*
X243992Y53262D01*
X244000Y53251D01*
X244700Y53251D01*
X244704Y53254D01*
X244706Y53251D01*
X245506Y53351D01*
X245522Y53367D01*
X245535Y53365D01*
X245935Y53765D01*
X245936Y53777D01*
X245940Y53779D01*
X245937Y53783D01*
X245939Y53792D01*
X245949Y53800D01*
X245949Y61900D01*
X245946Y61905D01*
X245949Y61908D01*
X245849Y62508D01*
X245825Y62531D01*
X245822Y62544D01*
X245222Y62844D01*
X245206Y62841D01*
X245200Y62849D01*
X244500Y62849D01*
X244492Y62843D01*
X244486Y62847D01*
X243786Y62647D01*
X243761Y62613D01*
X243751Y62608D01*
X243651Y62008D01*
X243652Y62007D01*
X243651Y62007D01*
X243551Y61307D01*
X243554Y61302D01*
X243551Y61300D01*
X243551Y57454D01*
X242140Y59429D01*
X242139Y59429D01*
X242140Y59429D01*
X240140Y62129D01*
X240134Y62131D01*
X240135Y62135D01*
X239635Y62635D01*
X239617Y62637D01*
X239614Y62647D01*
X238914Y62847D01*
X238904Y62844D01*
X238900Y62849D01*
X238200Y62849D01*
X238182Y62835D01*
X238169Y62838D01*
X237669Y62438D01*
X237663Y62413D01*
X237651Y62407D01*
X237551Y61707D01*
X237554Y61702D01*
X237551Y61700D01*
X237551Y54300D01*
X237554Y54295D01*
X237551Y54292D01*
X237651Y53692D01*
X237667Y53677D01*
X237665Y53665D01*
X238065Y53265D01*
X238092Y53262D01*
X238100Y53251D01*
X239000Y53251D01*
X239009Y53258D01*
G37*
G36*
X278904Y23254D02*
X278904Y23254D01*
X278907Y23251D01*
X280307Y23451D01*
X280315Y23459D01*
X280322Y23456D01*
X280922Y23756D01*
X280923Y23759D01*
X280925Y23758D01*
X281425Y24058D01*
X281430Y24069D01*
X281438Y24069D01*
X281838Y24569D01*
X281839Y24582D01*
X281847Y24584D01*
X282047Y25184D01*
X282043Y25195D01*
X282049Y25200D01*
X282049Y28000D01*
X282046Y28004D01*
X282049Y28007D01*
X281949Y28707D01*
X281930Y28726D01*
X281930Y28739D01*
X281530Y29039D01*
X281517Y29039D01*
X281514Y29047D01*
X280814Y29247D01*
X280804Y29244D01*
X280800Y29249D01*
X278700Y29249D01*
X278691Y29242D01*
X278684Y29247D01*
X278084Y29047D01*
X278066Y29020D01*
X278053Y29016D01*
X277853Y28416D01*
X277857Y28405D01*
X277851Y28400D01*
X277851Y27700D01*
X277867Y27679D01*
X277865Y27665D01*
X278265Y27265D01*
X278289Y27262D01*
X278297Y27251D01*
X279651Y27154D01*
X279651Y25930D01*
X279088Y25649D01*
X277812Y25649D01*
X277227Y25942D01*
X276635Y26435D01*
X276244Y26924D01*
X276048Y27511D01*
X275950Y28200D01*
X276048Y28890D01*
X276245Y29577D01*
X276635Y30065D01*
X277123Y30455D01*
X277810Y30652D01*
X278499Y30750D01*
X279085Y30653D01*
X280379Y30055D01*
X280400Y30060D01*
X280410Y30052D01*
X280910Y30152D01*
X280925Y30169D01*
X280938Y30168D01*
X281438Y30768D01*
X281438Y30777D01*
X281444Y30778D01*
X281744Y31378D01*
X281739Y31404D01*
X281747Y31416D01*
X281547Y32016D01*
X281528Y32028D01*
X281527Y32041D01*
X280927Y32441D01*
X280923Y32441D01*
X280922Y32444D01*
X280322Y32744D01*
X280315Y32743D01*
X280314Y32747D01*
X279615Y32947D01*
X279016Y33147D01*
X279005Y33143D01*
X279000Y33149D01*
X278300Y33149D01*
X278296Y33146D01*
X278293Y33149D01*
X277593Y33049D01*
X277592Y33048D01*
X277592Y33049D01*
X276992Y32949D01*
X276985Y32941D01*
X276978Y32944D01*
X275778Y32344D01*
X275776Y32340D01*
X275773Y32341D01*
X275173Y31941D01*
X275170Y31934D01*
X275165Y31935D01*
X274665Y31435D01*
X274664Y31428D01*
X274659Y31427D01*
X274259Y30827D01*
X274259Y30826D01*
X274258Y30825D01*
X273958Y30325D01*
X273959Y30316D01*
X273953Y30314D01*
X273753Y29615D01*
X273553Y29016D01*
X273557Y29005D01*
X273551Y29000D01*
X273551Y27600D01*
X273554Y27596D01*
X273551Y27593D01*
X273651Y26893D01*
X273659Y26885D01*
X273656Y26878D01*
X274556Y25078D01*
X274566Y25073D01*
X274565Y25065D01*
X275065Y24565D01*
X275069Y24565D01*
X275069Y24562D01*
X275569Y24162D01*
X275573Y24161D01*
X275573Y24159D01*
X276173Y23759D01*
X276177Y23759D01*
X276178Y23756D01*
X276778Y23456D01*
X276783Y23457D01*
X276784Y23453D01*
X277384Y23253D01*
X277395Y23257D01*
X277400Y23251D01*
X278900Y23251D01*
X278904Y23254D01*
G37*
G36*
X249221Y38267D02*
X249221Y38267D01*
X249235Y38265D01*
X249635Y38665D01*
X249636Y38677D01*
X249641Y38681D01*
X249638Y38686D01*
X249649Y38692D01*
X249749Y39292D01*
X249746Y39297D01*
X249749Y39300D01*
X249749Y40670D01*
X250112Y40851D01*
X251500Y40851D01*
X251505Y40854D01*
X251508Y40851D01*
X252108Y40951D01*
X252112Y40956D01*
X252116Y40953D01*
X252716Y41153D01*
X252721Y41161D01*
X252727Y41159D01*
X253927Y41959D01*
X253931Y41969D01*
X253938Y41969D01*
X254338Y42469D01*
X254339Y42479D01*
X254345Y42481D01*
X254645Y43181D01*
X254643Y43189D01*
X254649Y43192D01*
X254749Y43792D01*
X254748Y43793D01*
X254749Y43793D01*
X254849Y44493D01*
X254846Y44498D01*
X254849Y44500D01*
X254849Y45200D01*
X254840Y45213D01*
X254844Y45222D01*
X254444Y46022D01*
X254437Y46025D01*
X254438Y46031D01*
X254038Y46531D01*
X254034Y46532D01*
X254035Y46535D01*
X253535Y47035D01*
X253528Y47036D01*
X253527Y47041D01*
X252927Y47441D01*
X252923Y47441D01*
X252922Y47444D01*
X252322Y47744D01*
X252311Y47742D01*
X252307Y47749D01*
X251607Y47849D01*
X251602Y47846D01*
X251600Y47849D01*
X248200Y47849D01*
X248191Y47842D01*
X248184Y47847D01*
X247584Y47647D01*
X247567Y47622D01*
X247554Y47618D01*
X247354Y47118D01*
X247358Y47105D01*
X247351Y47100D01*
X247351Y38900D01*
X247360Y38887D01*
X247356Y38878D01*
X247556Y38478D01*
X247582Y38465D01*
X247586Y38453D01*
X248286Y38253D01*
X248296Y38256D01*
X248300Y38251D01*
X249200Y38251D01*
X249221Y38267D01*
G37*
G36*
X283909Y38258D02*
X283909Y38258D01*
X283916Y38253D01*
X284516Y38453D01*
X284533Y38478D01*
X284546Y38482D01*
X284746Y38982D01*
X284743Y38990D01*
X284749Y38993D01*
X284849Y39693D01*
X284846Y39698D01*
X284849Y39700D01*
X284849Y41684D01*
X285125Y42051D01*
X287875Y42051D01*
X288151Y41684D01*
X288151Y39000D01*
X288162Y38985D01*
X288158Y38975D01*
X288458Y38475D01*
X288480Y38466D01*
X288484Y38453D01*
X289084Y38253D01*
X289095Y38257D01*
X289100Y38251D01*
X290000Y38251D01*
X290021Y38267D01*
X290035Y38265D01*
X290435Y38665D01*
X290436Y38677D01*
X290441Y38681D01*
X290438Y38686D01*
X290449Y38692D01*
X290549Y39292D01*
X290546Y39297D01*
X290549Y39300D01*
X290549Y46900D01*
X290542Y46909D01*
X290547Y46916D01*
X290347Y47516D01*
X290327Y47529D01*
X290325Y47542D01*
X289825Y47842D01*
X289807Y47840D01*
X289800Y47849D01*
X289000Y47849D01*
X288991Y47842D01*
X288984Y47847D01*
X288384Y47647D01*
X288366Y47620D01*
X288353Y47616D01*
X288153Y47016D01*
X288157Y47005D01*
X288151Y47000D01*
X288151Y44225D01*
X287784Y43949D01*
X285125Y43949D01*
X284849Y44316D01*
X284849Y46300D01*
X284846Y46304D01*
X284849Y46307D01*
X284749Y47007D01*
X284744Y47012D01*
X284747Y47016D01*
X284547Y47616D01*
X284520Y47634D01*
X284516Y47647D01*
X283916Y47847D01*
X283905Y47843D01*
X283900Y47849D01*
X283000Y47849D01*
X282982Y47836D01*
X282970Y47839D01*
X282570Y47539D01*
X282566Y47523D01*
X282563Y47514D01*
X282551Y47507D01*
X282451Y46807D01*
X282454Y46802D01*
X282451Y46800D01*
X282451Y38700D01*
X282470Y38675D01*
X282469Y38662D01*
X282969Y38262D01*
X282992Y38261D01*
X283000Y38251D01*
X283900Y38251D01*
X283909Y38258D01*
G37*
G36*
X263309Y53258D02*
X263309Y53258D01*
X263316Y53253D01*
X263916Y53453D01*
X263919Y53458D01*
X263922Y53456D01*
X264522Y53756D01*
X264524Y53760D01*
X264527Y53759D01*
X265127Y54159D01*
X265131Y54169D01*
X265138Y54169D01*
X265938Y55169D01*
X265939Y55173D01*
X265941Y55173D01*
X266341Y55773D01*
X266340Y55784D01*
X266347Y55786D01*
X266547Y56486D01*
X266547Y56487D01*
X266548Y56488D01*
X266546Y56490D01*
X266549Y56492D01*
X266649Y57092D01*
X266648Y57093D01*
X266649Y57093D01*
X266749Y57793D01*
X266746Y57798D01*
X266749Y57800D01*
X266749Y61900D01*
X266746Y61904D01*
X266749Y61907D01*
X266649Y62607D01*
X266624Y62631D01*
X266622Y62644D01*
X266022Y62944D01*
X266006Y62941D01*
X266000Y62949D01*
X265300Y62949D01*
X265296Y62946D01*
X265293Y62949D01*
X264593Y62849D01*
X264564Y62819D01*
X264553Y62816D01*
X264353Y62216D01*
X264357Y62205D01*
X264351Y62200D01*
X264351Y58103D01*
X264251Y57408D01*
X264153Y56818D01*
X263763Y56234D01*
X263276Y55844D01*
X262692Y55649D01*
X262012Y55649D01*
X261432Y55939D01*
X261042Y56427D01*
X260748Y57015D01*
X260649Y57703D01*
X260649Y61800D01*
X260646Y61804D01*
X260649Y61807D01*
X260549Y62507D01*
X260530Y62525D01*
X260531Y62538D01*
X260031Y62938D01*
X260008Y62939D01*
X260000Y62949D01*
X258700Y62949D01*
X258672Y62928D01*
X258659Y62927D01*
X258259Y62327D01*
X258260Y62307D01*
X258251Y62300D01*
X258251Y57600D01*
X258254Y57596D01*
X258251Y57593D01*
X258451Y56193D01*
X258459Y56185D01*
X258456Y56178D01*
X259056Y54978D01*
X259063Y54975D01*
X259062Y54969D01*
X259462Y54469D01*
X259469Y54467D01*
X259469Y54462D01*
X259969Y54062D01*
X259973Y54061D01*
X259973Y54059D01*
X260573Y53659D01*
X260577Y53659D01*
X260578Y53656D01*
X261178Y53356D01*
X261189Y53358D01*
X261193Y53351D01*
X261893Y53251D01*
X261898Y53254D01*
X261900Y53251D01*
X263300Y53251D01*
X263309Y53258D01*
G37*
G36*
X210004Y23254D02*
X210004Y23254D01*
X210007Y23251D01*
X210707Y23351D01*
X210712Y23356D01*
X210716Y23353D01*
X211316Y23553D01*
X211321Y23561D01*
X211327Y23559D01*
X211927Y23959D01*
X211928Y23962D01*
X211931Y23962D01*
X212431Y24362D01*
X212434Y24376D01*
X212444Y24378D01*
X213044Y25578D01*
X213041Y25594D01*
X213049Y25600D01*
X213049Y26500D01*
X213046Y26505D01*
X213049Y26508D01*
X212949Y27108D01*
X212941Y27115D01*
X212944Y27122D01*
X212644Y27722D01*
X212634Y27727D01*
X212635Y27735D01*
X212135Y28235D01*
X212131Y28235D01*
X212131Y28238D01*
X211631Y28638D01*
X211623Y28639D01*
X211622Y28644D01*
X211022Y28944D01*
X211015Y28943D01*
X211014Y28947D01*
X210314Y29147D01*
X210304Y29144D01*
X210300Y29149D01*
X209700Y29149D01*
X209692Y29143D01*
X209686Y29147D01*
X209068Y28971D01*
X209145Y29277D01*
X209635Y29865D01*
X210123Y30255D01*
X210811Y30452D01*
X211407Y30551D01*
X212206Y30651D01*
X212219Y30664D01*
X212230Y30661D01*
X212630Y30961D01*
X212636Y30982D01*
X212647Y30986D01*
X212847Y31686D01*
X212842Y31700D01*
X212849Y31707D01*
X212749Y32407D01*
X212736Y32420D01*
X212738Y32431D01*
X212338Y32931D01*
X212308Y32938D01*
X212300Y32949D01*
X210900Y32949D01*
X210896Y32946D01*
X210893Y32949D01*
X210193Y32849D01*
X210189Y32845D01*
X210186Y32847D01*
X209486Y32647D01*
X209482Y32642D01*
X209478Y32644D01*
X208878Y32344D01*
X208875Y32337D01*
X208869Y32338D01*
X207869Y31538D01*
X207867Y31531D01*
X207862Y31531D01*
X207462Y31031D01*
X207461Y31023D01*
X207456Y31022D01*
X206856Y29822D01*
X206857Y29817D01*
X206856Y29816D01*
X206853Y29816D01*
X206453Y28616D01*
X206455Y28609D01*
X206451Y28607D01*
X206351Y27907D01*
X206354Y27902D01*
X206351Y27900D01*
X206351Y26400D01*
X206357Y26392D01*
X206353Y26386D01*
X206553Y25686D01*
X206554Y25685D01*
X206553Y25684D01*
X206753Y25084D01*
X206758Y25081D01*
X206756Y25078D01*
X207056Y24478D01*
X207066Y24473D01*
X207065Y24465D01*
X207465Y24065D01*
X207469Y24065D01*
X207469Y24062D01*
X207969Y23662D01*
X207977Y23661D01*
X207978Y23656D01*
X208578Y23356D01*
X208589Y23358D01*
X208593Y23351D01*
X209293Y23251D01*
X209298Y23254D01*
X209300Y23251D01*
X210000Y23251D01*
X210004Y23254D01*
G37*
G36*
X207304Y53254D02*
X207304Y53254D01*
X207307Y53251D01*
X208007Y53351D01*
X208012Y53356D01*
X208016Y53353D01*
X208616Y53553D01*
X208621Y53561D01*
X208627Y53559D01*
X209227Y53959D01*
X209228Y53962D01*
X209231Y53962D01*
X209731Y54362D01*
X209734Y54376D01*
X209744Y54378D01*
X210044Y54978D01*
X210043Y54983D01*
X210047Y54984D01*
X210247Y55584D01*
X210245Y55591D01*
X210249Y55593D01*
X210349Y56293D01*
X210346Y56298D01*
X210349Y56300D01*
X210349Y56500D01*
X210346Y56505D01*
X210349Y56508D01*
X210249Y57108D01*
X210241Y57115D01*
X210244Y57122D01*
X209944Y57722D01*
X209934Y57727D01*
X209935Y57735D01*
X209435Y58235D01*
X209431Y58235D01*
X209431Y58238D01*
X208931Y58638D01*
X208923Y58639D01*
X208922Y58644D01*
X208322Y58944D01*
X208315Y58943D01*
X208314Y58947D01*
X207614Y59147D01*
X207604Y59144D01*
X207600Y59149D01*
X206900Y59149D01*
X206891Y59142D01*
X206884Y59147D01*
X206370Y58975D01*
X206445Y59277D01*
X206935Y59865D01*
X207423Y60255D01*
X208111Y60452D01*
X208707Y60551D01*
X209506Y60651D01*
X209519Y60664D01*
X209530Y60661D01*
X209930Y60961D01*
X209937Y60987D01*
X209949Y60993D01*
X210049Y61693D01*
X210046Y61698D01*
X210049Y61700D01*
X210049Y62400D01*
X210035Y62418D01*
X210038Y62431D01*
X209638Y62931D01*
X209608Y62938D01*
X209600Y62949D01*
X208100Y62949D01*
X208095Y62946D01*
X208092Y62949D01*
X207492Y62849D01*
X207489Y62845D01*
X207486Y62847D01*
X206786Y62647D01*
X206782Y62642D01*
X206778Y62644D01*
X206178Y62344D01*
X206175Y62337D01*
X206169Y62338D01*
X205169Y61538D01*
X205167Y61531D01*
X205162Y61531D01*
X204762Y61031D01*
X204761Y61023D01*
X204756Y61022D01*
X204156Y59822D01*
X204157Y59817D01*
X204156Y59817D01*
X204153Y59816D01*
X203753Y58616D01*
X203755Y58609D01*
X203751Y58607D01*
X203651Y57907D01*
X203654Y57902D01*
X203651Y57900D01*
X203651Y56400D01*
X203657Y56392D01*
X203653Y56386D01*
X203853Y55686D01*
X203854Y55685D01*
X203853Y55684D01*
X204053Y55084D01*
X204058Y55081D01*
X204056Y55078D01*
X204356Y54478D01*
X204366Y54473D01*
X204365Y54465D01*
X204765Y54065D01*
X204769Y54065D01*
X204769Y54062D01*
X205269Y53662D01*
X205277Y53661D01*
X205278Y53656D01*
X205878Y53356D01*
X205889Y53358D01*
X205893Y53351D01*
X206593Y53251D01*
X206598Y53254D01*
X206600Y53251D01*
X207300Y53251D01*
X207304Y53254D01*
G37*
G36*
X201508Y23257D02*
X201508Y23257D01*
X201514Y23253D01*
X202214Y23453D01*
X202219Y23460D01*
X202225Y23458D01*
X202723Y23757D01*
X203322Y24056D01*
X203327Y24066D01*
X203335Y24065D01*
X203835Y24565D01*
X203836Y24577D01*
X203844Y24578D01*
X204144Y25178D01*
X204143Y25183D01*
X204147Y25184D01*
X204347Y25784D01*
X204345Y25791D01*
X204349Y25793D01*
X204449Y26493D01*
X204441Y26507D01*
X204447Y26516D01*
X204247Y27116D01*
X204242Y27119D01*
X204244Y27122D01*
X203944Y27722D01*
X203934Y27727D01*
X203935Y27735D01*
X203449Y28220D01*
X203449Y28576D01*
X203931Y28962D01*
X203936Y28981D01*
X203947Y28984D01*
X204147Y29584D01*
X204145Y29589D01*
X204147Y29591D01*
X204144Y29596D01*
X204149Y29600D01*
X204149Y30300D01*
X204146Y30304D01*
X204149Y30307D01*
X204049Y31007D01*
X204041Y31015D01*
X204044Y31022D01*
X203744Y31622D01*
X203737Y31625D01*
X203738Y31631D01*
X203338Y32131D01*
X203334Y32132D01*
X203335Y32135D01*
X202335Y33135D01*
X202308Y33139D01*
X202300Y33149D01*
X200300Y33149D01*
X200292Y33143D01*
X200286Y33147D01*
X199586Y32947D01*
X199585Y32946D01*
X199584Y32947D01*
X198984Y32747D01*
X198979Y32739D01*
X198973Y32741D01*
X198373Y32341D01*
X198369Y32331D01*
X198362Y32331D01*
X197962Y31831D01*
X197961Y31825D01*
X197957Y31824D01*
X197557Y31124D01*
X197559Y31113D01*
X197552Y31110D01*
X197452Y30610D01*
X197463Y30587D01*
X197458Y30575D01*
X197758Y30075D01*
X197774Y30068D01*
X197776Y30057D01*
X198476Y29657D01*
X198488Y29659D01*
X198492Y29651D01*
X199092Y29551D01*
X199098Y29555D01*
X199104Y29555D01*
X199117Y29565D01*
X199122Y29567D01*
X199135Y29565D01*
X199535Y29965D01*
X199535Y29969D01*
X199538Y29969D01*
X199932Y30461D01*
X200512Y30751D01*
X201283Y30751D01*
X201751Y30376D01*
X201751Y29836D01*
X201189Y29648D01*
X200394Y29549D01*
X200387Y29542D01*
X200382Y29546D01*
X199882Y29346D01*
X199866Y29320D01*
X199853Y29316D01*
X199653Y28716D01*
X199658Y28701D01*
X199651Y28695D01*
X199751Y27795D01*
X199764Y27781D01*
X199761Y27770D01*
X200061Y27370D01*
X200086Y27363D01*
X200092Y27351D01*
X200692Y27251D01*
X200693Y27252D01*
X200693Y27251D01*
X201379Y27153D01*
X201951Y26677D01*
X201951Y26120D01*
X201574Y25744D01*
X200897Y25550D01*
X200215Y25648D01*
X199638Y25936D01*
X199345Y26619D01*
X199330Y26628D01*
X199330Y26639D01*
X198930Y26939D01*
X198912Y26939D01*
X198906Y26949D01*
X198106Y27049D01*
X198096Y27043D01*
X198092Y27043D01*
X198086Y27047D01*
X197386Y26847D01*
X197373Y26830D01*
X197361Y26830D01*
X197061Y26430D01*
X197061Y26421D01*
X197055Y26416D01*
X197061Y26408D01*
X197061Y26403D01*
X197051Y26393D01*
X197151Y25693D01*
X197156Y25688D01*
X197153Y25684D01*
X197353Y25084D01*
X197361Y25079D01*
X197359Y25073D01*
X197759Y24473D01*
X197762Y24472D01*
X197762Y24469D01*
X198162Y23969D01*
X198176Y23966D01*
X198178Y23956D01*
X199378Y23356D01*
X199389Y23358D01*
X199393Y23351D01*
X200093Y23251D01*
X200098Y23254D01*
X200100Y23251D01*
X201500Y23251D01*
X201508Y23257D01*
G37*
G36*
X214204Y38254D02*
X214204Y38254D01*
X214207Y38251D01*
X214907Y38351D01*
X214915Y38359D01*
X214922Y38356D01*
X215522Y38656D01*
X215525Y38663D01*
X215531Y38662D01*
X216031Y39062D01*
X216032Y39066D01*
X216035Y39065D01*
X216535Y39565D01*
X216536Y39577D01*
X216544Y39578D01*
X216844Y40178D01*
X216843Y40185D01*
X216847Y40186D01*
X217047Y40886D01*
X217046Y40891D01*
X217049Y40893D01*
X217149Y41593D01*
X217143Y41603D01*
X217149Y41608D01*
X217049Y42208D01*
X217045Y42211D01*
X217047Y42214D01*
X216847Y42914D01*
X216840Y42919D01*
X216842Y42925D01*
X216542Y43425D01*
X216537Y43427D01*
X216538Y43432D01*
X216038Y44032D01*
X216028Y44034D01*
X216027Y44041D01*
X215427Y44441D01*
X215418Y44440D01*
X215416Y44447D01*
X214816Y44647D01*
X214814Y44646D01*
X214814Y44647D01*
X214114Y44847D01*
X214104Y44844D01*
X214100Y44849D01*
X213549Y44849D01*
X213549Y45562D01*
X213906Y45651D01*
X216000Y45651D01*
X216009Y45658D01*
X216016Y45653D01*
X216616Y45853D01*
X216629Y45873D01*
X216642Y45875D01*
X216942Y46375D01*
X216940Y46397D01*
X216949Y46405D01*
X216849Y47305D01*
X216842Y47313D01*
X216846Y47318D01*
X216646Y47818D01*
X216620Y47834D01*
X216616Y47847D01*
X216016Y48047D01*
X216005Y48043D01*
X216000Y48049D01*
X212600Y48049D01*
X212592Y48043D01*
X212586Y48047D01*
X211886Y47847D01*
X211874Y47830D01*
X211862Y47831D01*
X211462Y47331D01*
X211461Y47316D01*
X211452Y47312D01*
X211352Y46912D01*
X211354Y46908D01*
X211351Y46906D01*
X210851Y43006D01*
X210858Y42995D01*
X210852Y42988D01*
X210952Y42588D01*
X210972Y42572D01*
X210973Y42559D01*
X211573Y42159D01*
X211577Y42159D01*
X211578Y42156D01*
X212178Y41856D01*
X212199Y41860D01*
X212208Y41851D01*
X212808Y41951D01*
X212818Y41962D01*
X212827Y41959D01*
X213415Y42351D01*
X214086Y42351D01*
X214558Y42068D01*
X214747Y41405D01*
X214465Y40840D01*
X213895Y40650D01*
X213120Y40747D01*
X212631Y41138D01*
X212618Y41139D01*
X212616Y41147D01*
X212016Y41347D01*
X211993Y41339D01*
X211982Y41346D01*
X211482Y41146D01*
X211474Y41134D01*
X211465Y41135D01*
X210865Y40535D01*
X210863Y40519D01*
X210853Y40516D01*
X210653Y39916D01*
X210663Y39887D01*
X210658Y39875D01*
X210958Y39375D01*
X210969Y39370D01*
X210968Y39362D01*
X211568Y38862D01*
X211577Y38862D01*
X211578Y38856D01*
X212178Y38556D01*
X212183Y38557D01*
X212184Y38553D01*
X212784Y38353D01*
X212791Y38355D01*
X212793Y38351D01*
X213493Y38251D01*
X213498Y38254D01*
X213500Y38251D01*
X214200Y38251D01*
X214204Y38254D01*
G37*
G36*
X221309Y53258D02*
X221309Y53258D01*
X221316Y53253D01*
X221914Y53453D01*
X222712Y53652D01*
X222719Y53661D01*
X222725Y53658D01*
X223225Y53958D01*
X223227Y53962D01*
X223231Y53962D01*
X223731Y54362D01*
X223736Y54381D01*
X223747Y54384D01*
X223947Y54984D01*
X223937Y55012D01*
X223943Y55024D01*
X223543Y55724D01*
X223534Y55728D01*
X223535Y55735D01*
X223035Y56235D01*
X223016Y56237D01*
X223012Y56248D01*
X222612Y56348D01*
X222588Y56338D01*
X222576Y56343D01*
X221877Y55944D01*
X221288Y55649D01*
X220012Y55649D01*
X219425Y55943D01*
X218834Y56337D01*
X218442Y56827D01*
X218148Y57415D01*
X218050Y58100D01*
X218148Y58789D01*
X218345Y59378D01*
X218734Y59962D01*
X219322Y60256D01*
X219915Y60552D01*
X220600Y60650D01*
X221289Y60552D01*
X221878Y60355D01*
X222473Y59959D01*
X222493Y59960D01*
X222500Y59951D01*
X223000Y59951D01*
X223021Y59967D01*
X223035Y59965D01*
X223535Y60465D01*
X223536Y60472D01*
X223541Y60473D01*
X223941Y61073D01*
X223939Y61098D01*
X223949Y61108D01*
X223849Y61708D01*
X223833Y61723D01*
X223835Y61735D01*
X223335Y62235D01*
X223326Y62236D01*
X223325Y62242D01*
X222825Y62542D01*
X222822Y62542D01*
X222822Y62544D01*
X222222Y62844D01*
X222210Y62842D01*
X222206Y62849D01*
X221407Y62949D01*
X220808Y63049D01*
X220803Y63046D01*
X220800Y63049D01*
X220100Y63049D01*
X220095Y63046D01*
X220092Y63049D01*
X219492Y62949D01*
X219489Y62945D01*
X219486Y62947D01*
X218786Y62747D01*
X218782Y62742D01*
X218778Y62744D01*
X218178Y62444D01*
X218176Y62440D01*
X218173Y62441D01*
X217573Y62041D01*
X217572Y62038D01*
X217569Y62038D01*
X217069Y61638D01*
X217067Y61631D01*
X217062Y61631D01*
X216662Y61131D01*
X216661Y61127D01*
X216659Y61127D01*
X216259Y60527D01*
X216259Y60523D01*
X216256Y60522D01*
X215956Y59922D01*
X215957Y59917D01*
X215953Y59916D01*
X215753Y59316D01*
X215757Y59305D01*
X215751Y59300D01*
X215751Y58603D01*
X215651Y57907D01*
X215656Y57898D01*
X215651Y57893D01*
X215751Y57193D01*
X215756Y57188D01*
X215753Y57184D01*
X215953Y56584D01*
X215956Y56583D01*
X215955Y56581D01*
X216255Y55881D01*
X216259Y55878D01*
X216258Y55875D01*
X216558Y55375D01*
X216562Y55373D01*
X216562Y55369D01*
X216962Y54869D01*
X216966Y54868D01*
X216965Y54865D01*
X217465Y54365D01*
X217472Y54364D01*
X217473Y54359D01*
X218073Y53959D01*
X218077Y53959D01*
X218078Y53956D01*
X218678Y53656D01*
X218683Y53657D01*
X218684Y53653D01*
X219284Y53453D01*
X219286Y53454D01*
X219286Y53453D01*
X219986Y53253D01*
X219996Y53256D01*
X220000Y53251D01*
X221300Y53251D01*
X221309Y53258D01*
G37*
G36*
X277508Y38257D02*
X277508Y38257D01*
X277514Y38253D01*
X278212Y38452D01*
X279012Y38652D01*
X279021Y38663D01*
X279030Y38661D01*
X279429Y38960D01*
X280027Y39359D01*
X280037Y39386D01*
X280049Y39392D01*
X280149Y39992D01*
X280140Y40009D01*
X280145Y40019D01*
X279845Y40719D01*
X279834Y40726D01*
X279835Y40735D01*
X279335Y41235D01*
X279316Y41237D01*
X279312Y41248D01*
X278912Y41348D01*
X278888Y41338D01*
X278876Y41343D01*
X278177Y40944D01*
X277588Y40649D01*
X276310Y40649D01*
X275626Y40943D01*
X275133Y41337D01*
X274643Y41827D01*
X274448Y42411D01*
X274350Y43100D01*
X274448Y43789D01*
X274645Y44378D01*
X275034Y44962D01*
X275622Y45256D01*
X276215Y45553D01*
X276801Y45650D01*
X277589Y45552D01*
X278178Y45355D01*
X278773Y44959D01*
X278793Y44960D01*
X278800Y44951D01*
X279300Y44951D01*
X279321Y44967D01*
X279335Y44965D01*
X279835Y45465D01*
X279836Y45472D01*
X279841Y45473D01*
X280241Y46073D01*
X280239Y46098D01*
X280249Y46108D01*
X280149Y46708D01*
X280133Y46723D01*
X280135Y46735D01*
X279635Y47235D01*
X279626Y47236D01*
X279625Y47242D01*
X279125Y47542D01*
X279120Y47542D01*
X279119Y47545D01*
X278419Y47845D01*
X278410Y47843D01*
X278407Y47849D01*
X277708Y47949D01*
X277108Y48049D01*
X277103Y48046D01*
X277100Y48049D01*
X276400Y48049D01*
X276395Y48046D01*
X276392Y48049D01*
X275792Y47949D01*
X275789Y47945D01*
X275786Y47947D01*
X275086Y47747D01*
X275082Y47742D01*
X275078Y47744D01*
X274478Y47444D01*
X274476Y47440D01*
X274473Y47441D01*
X273873Y47041D01*
X273872Y47038D01*
X273869Y47038D01*
X273369Y46638D01*
X273367Y46631D01*
X273362Y46631D01*
X272962Y46131D01*
X272961Y46127D01*
X272959Y46127D01*
X272559Y45527D01*
X272559Y45523D01*
X272556Y45522D01*
X272256Y44922D01*
X272257Y44917D01*
X272253Y44916D01*
X272053Y44316D01*
X272055Y44309D01*
X272051Y44307D01*
X271951Y43607D01*
X271954Y43602D01*
X271951Y43600D01*
X271951Y42900D01*
X271954Y42896D01*
X271951Y42893D01*
X272051Y42193D01*
X272056Y42188D01*
X272053Y42184D01*
X272253Y41585D01*
X272453Y40886D01*
X272464Y40878D01*
X272462Y40869D01*
X273262Y39869D01*
X273266Y39868D01*
X273265Y39865D01*
X273765Y39365D01*
X273769Y39365D01*
X273769Y39362D01*
X274269Y38962D01*
X274279Y38961D01*
X274281Y38955D01*
X274981Y38655D01*
X274984Y38656D01*
X274984Y38653D01*
X276184Y38253D01*
X276195Y38257D01*
X276200Y38251D01*
X277500Y38251D01*
X277508Y38257D01*
G37*
G36*
X274008Y53257D02*
X274008Y53257D01*
X274014Y53253D01*
X275414Y53653D01*
X275419Y53660D01*
X275425Y53658D01*
X275925Y53958D01*
X275926Y53959D01*
X275927Y53959D01*
X276527Y54359D01*
X276537Y54386D01*
X276549Y54392D01*
X276649Y54992D01*
X276640Y55009D01*
X276645Y55019D01*
X276345Y55719D01*
X276334Y55726D01*
X276335Y55735D01*
X275835Y56235D01*
X275815Y56238D01*
X275810Y56248D01*
X275310Y56348D01*
X275285Y56337D01*
X275273Y56341D01*
X274675Y55943D01*
X274088Y55649D01*
X272712Y55649D01*
X272125Y55943D01*
X271534Y56337D01*
X271144Y56824D01*
X270948Y57411D01*
X270850Y58100D01*
X270948Y58789D01*
X271145Y59378D01*
X271534Y59962D01*
X272122Y60256D01*
X272715Y60553D01*
X273301Y60650D01*
X273989Y60552D01*
X274580Y60355D01*
X275276Y59957D01*
X275293Y59960D01*
X275300Y59951D01*
X275700Y59951D01*
X275719Y59965D01*
X275732Y59962D01*
X276332Y60462D01*
X276334Y60472D01*
X276341Y60473D01*
X276741Y61073D01*
X276739Y61098D01*
X276749Y61108D01*
X276649Y61708D01*
X276633Y61723D01*
X276635Y61735D01*
X276135Y62235D01*
X276123Y62236D01*
X276122Y62244D01*
X274922Y62844D01*
X274911Y62842D01*
X274907Y62849D01*
X273507Y63049D01*
X273502Y63046D01*
X273500Y63049D01*
X272900Y63049D01*
X272895Y63046D01*
X272892Y63049D01*
X272292Y62949D01*
X272289Y62945D01*
X272286Y62947D01*
X271586Y62747D01*
X271582Y62742D01*
X271578Y62744D01*
X270978Y62444D01*
X270976Y62440D01*
X270973Y62441D01*
X270373Y62041D01*
X270372Y62038D01*
X270369Y62038D01*
X269869Y61638D01*
X269868Y61634D01*
X269865Y61635D01*
X269365Y61135D01*
X269364Y61123D01*
X269356Y61122D01*
X268756Y59922D01*
X268757Y59917D01*
X268753Y59916D01*
X268553Y59316D01*
X268555Y59309D01*
X268551Y59307D01*
X268451Y58607D01*
X268454Y58602D01*
X268451Y58600D01*
X268451Y57900D01*
X268454Y57896D01*
X268451Y57893D01*
X268551Y57193D01*
X268556Y57188D01*
X268553Y57184D01*
X268753Y56585D01*
X268953Y55886D01*
X268964Y55878D01*
X268962Y55869D01*
X269762Y54869D01*
X269766Y54868D01*
X269765Y54865D01*
X270265Y54365D01*
X270269Y54365D01*
X270269Y54362D01*
X270769Y53962D01*
X270777Y53961D01*
X270778Y53956D01*
X271378Y53656D01*
X271385Y53657D01*
X271386Y53653D01*
X272085Y53453D01*
X272684Y53253D01*
X272695Y53257D01*
X272700Y53251D01*
X274000Y53251D01*
X274008Y53257D01*
G37*
G36*
X283405Y53254D02*
X283405Y53254D01*
X283408Y53251D01*
X284008Y53351D01*
X284031Y53376D01*
X284044Y53378D01*
X284344Y53978D01*
X284341Y53994D01*
X284349Y54000D01*
X284349Y60758D01*
X284904Y60851D01*
X287000Y60851D01*
X287013Y60860D01*
X287022Y60856D01*
X287622Y61156D01*
X287637Y61186D01*
X287649Y61192D01*
X287749Y61792D01*
X287743Y61802D01*
X287749Y61807D01*
X287649Y62507D01*
X287627Y62529D01*
X287625Y62542D01*
X287125Y62842D01*
X287107Y62840D01*
X287100Y62849D01*
X279500Y62849D01*
X279495Y62846D01*
X279492Y62849D01*
X278892Y62749D01*
X278869Y62725D01*
X278856Y62722D01*
X278556Y62122D01*
X278559Y62106D01*
X278551Y62100D01*
X278551Y61400D01*
X278570Y61375D01*
X278569Y61362D01*
X279069Y60962D01*
X279088Y60961D01*
X279093Y60951D01*
X279793Y60851D01*
X279798Y60854D01*
X279800Y60851D01*
X281770Y60851D01*
X281951Y60488D01*
X281951Y54300D01*
X281954Y54295D01*
X281951Y54292D01*
X282051Y53692D01*
X282070Y53675D01*
X282069Y53662D01*
X282569Y53262D01*
X282592Y53261D01*
X282600Y53251D01*
X283400Y53251D01*
X283405Y53254D01*
G37*
G36*
X265504Y38254D02*
X265504Y38254D01*
X265507Y38251D01*
X266207Y38351D01*
X266236Y38381D01*
X266247Y38384D01*
X266447Y38984D01*
X266445Y38991D01*
X266449Y38993D01*
X266549Y39693D01*
X266546Y39698D01*
X266549Y39700D01*
X266549Y45758D01*
X267104Y45851D01*
X269200Y45851D01*
X269213Y45860D01*
X269222Y45856D01*
X269822Y46156D01*
X269837Y46186D01*
X269849Y46192D01*
X269949Y46792D01*
X269943Y46802D01*
X269949Y46807D01*
X269849Y47507D01*
X269827Y47529D01*
X269825Y47542D01*
X269325Y47842D01*
X269307Y47840D01*
X269300Y47849D01*
X261700Y47849D01*
X261695Y47846D01*
X261692Y47849D01*
X261092Y47749D01*
X261069Y47725D01*
X261056Y47722D01*
X260756Y47122D01*
X260759Y47106D01*
X260751Y47100D01*
X260751Y46400D01*
X260767Y46379D01*
X260765Y46365D01*
X261165Y45965D01*
X261188Y45962D01*
X261194Y45951D01*
X261994Y45851D01*
X261998Y45853D01*
X262000Y45851D01*
X263970Y45851D01*
X264151Y45488D01*
X264151Y39300D01*
X264154Y39295D01*
X264151Y39292D01*
X264251Y38692D01*
X264270Y38675D01*
X264269Y38662D01*
X264769Y38262D01*
X264792Y38261D01*
X264800Y38251D01*
X265500Y38251D01*
X265504Y38254D01*
G37*
G36*
X249004Y23254D02*
X249004Y23254D01*
X249007Y23251D01*
X249707Y23351D01*
X249734Y23378D01*
X249746Y23382D01*
X249946Y23882D01*
X249942Y23895D01*
X249949Y23900D01*
X249949Y24600D01*
X249935Y24618D01*
X249938Y24631D01*
X249538Y25131D01*
X249513Y25137D01*
X249507Y25149D01*
X248807Y25249D01*
X248802Y25246D01*
X248800Y25249D01*
X245549Y25249D01*
X245549Y31900D01*
X245542Y31909D01*
X245547Y31916D01*
X245347Y32516D01*
X245327Y32529D01*
X245325Y32542D01*
X244825Y32842D01*
X244807Y32840D01*
X244800Y32849D01*
X243900Y32849D01*
X243887Y32840D01*
X243878Y32844D01*
X243278Y32544D01*
X243264Y32516D01*
X243252Y32510D01*
X243152Y32010D01*
X243155Y32003D01*
X243151Y32000D01*
X243151Y23800D01*
X243164Y23782D01*
X243161Y23770D01*
X243461Y23370D01*
X243487Y23363D01*
X243493Y23351D01*
X244193Y23251D01*
X244198Y23254D01*
X244200Y23251D01*
X249000Y23251D01*
X249004Y23254D01*
G37*
G36*
X201106Y53351D02*
X201106Y53351D01*
X201122Y53367D01*
X201135Y53365D01*
X201535Y53765D01*
X201536Y53777D01*
X201540Y53779D01*
X201537Y53783D01*
X201539Y53792D01*
X201549Y53800D01*
X201549Y61900D01*
X201546Y61905D01*
X201549Y61908D01*
X201449Y62508D01*
X201427Y62529D01*
X201425Y62542D01*
X200925Y62842D01*
X200907Y62840D01*
X200900Y62849D01*
X200200Y62849D01*
X200187Y62840D01*
X200178Y62844D01*
X199578Y62544D01*
X199575Y62537D01*
X199569Y62538D01*
X199069Y62138D01*
X199069Y62136D01*
X199066Y62136D01*
X197566Y60736D01*
X197566Y60731D01*
X197562Y60732D01*
X197062Y60132D01*
X197062Y60117D01*
X197052Y60110D01*
X196952Y59610D01*
X196962Y59589D01*
X196956Y59578D01*
X197256Y58978D01*
X197269Y58972D01*
X197268Y58962D01*
X197868Y58462D01*
X197892Y58461D01*
X197900Y58451D01*
X198400Y58451D01*
X198414Y58462D01*
X198424Y58457D01*
X199072Y58827D01*
X199151Y58592D01*
X199151Y54500D01*
X199154Y54495D01*
X199151Y54492D01*
X199251Y53892D01*
X199261Y53883D01*
X199258Y53875D01*
X199558Y53375D01*
X199586Y53363D01*
X199593Y53351D01*
X200293Y53251D01*
X200301Y53256D01*
X200306Y53251D01*
X201106Y53351D01*
G37*
%LPC*%
G36*
X120952Y42766D02*
X120952Y42766D01*
X120952Y47068D01*
X124249Y47068D01*
X125353Y46933D01*
X126174Y46530D01*
X126405Y46228D01*
X126685Y45863D01*
X126854Y44919D01*
X126854Y44894D01*
X126693Y44026D01*
X126207Y43349D01*
X125411Y42916D01*
X124317Y42766D01*
X120952Y42766D01*
G37*
%LPD*%
G36*
X258309Y38258D02*
X258309Y38258D01*
X258316Y38253D01*
X258916Y38453D01*
X258933Y38478D01*
X258946Y38482D01*
X259146Y38982D01*
X259142Y38995D01*
X259149Y39000D01*
X259149Y46500D01*
X259146Y46504D01*
X259149Y46507D01*
X259049Y47207D01*
X259036Y47219D01*
X259039Y47230D01*
X258739Y47630D01*
X258718Y47636D01*
X258714Y47647D01*
X258014Y47847D01*
X258000Y47842D01*
X257994Y47849D01*
X257194Y47749D01*
X257178Y47733D01*
X257165Y47735D01*
X256765Y47335D01*
X256762Y47308D01*
X256751Y47300D01*
X256751Y39200D01*
X256754Y39195D01*
X256751Y39192D01*
X256851Y38592D01*
X256873Y38571D01*
X256875Y38558D01*
X257375Y38258D01*
X257393Y38260D01*
X257400Y38251D01*
X258300Y38251D01*
X258309Y38258D01*
G37*
%LPC*%
G36*
X89028Y42481D02*
X89028Y42481D01*
X89028Y47068D01*
X91582Y47068D01*
X92707Y46923D01*
X93553Y46485D01*
X93747Y46228D01*
X94089Y45777D01*
X94268Y44793D01*
X94268Y44756D01*
X94098Y43866D01*
X93585Y43131D01*
X92761Y42643D01*
X91650Y42481D01*
X89028Y42481D01*
G37*
%LPD*%
%LPC*%
G36*
X294012Y55649D02*
X294012Y55649D01*
X293425Y55943D01*
X292831Y56338D01*
X292341Y56829D01*
X292244Y57022D01*
X292204Y57042D01*
X292203Y57043D01*
X292202Y57043D01*
X292191Y57048D01*
X292187Y57041D01*
X292184Y57038D01*
X292174Y57042D01*
X292149Y57027D01*
X292149Y58392D01*
X292346Y58981D01*
X292642Y59573D01*
X293034Y60063D01*
X293622Y60455D01*
X294208Y60651D01*
X294892Y60651D01*
X295478Y60455D01*
X296066Y60063D01*
X296458Y59573D01*
X296753Y58985D01*
X296851Y58396D01*
X296851Y57608D01*
X296654Y57019D01*
X296361Y56432D01*
X295873Y56042D01*
X295285Y55748D01*
X294597Y55649D01*
X294012Y55649D01*
G37*
%LPD*%
%LPC*%
G36*
X230112Y55649D02*
X230112Y55649D01*
X229525Y55943D01*
X228934Y56337D01*
X228538Y56831D01*
X228534Y56832D01*
X228535Y56835D01*
X228349Y57020D01*
X228349Y58396D01*
X228447Y58985D01*
X228742Y59573D01*
X229134Y60063D01*
X229722Y60455D01*
X230308Y60651D01*
X230992Y60651D01*
X231578Y60455D01*
X232169Y60062D01*
X232657Y59573D01*
X232853Y58984D01*
X233050Y58395D01*
X232951Y57607D01*
X232853Y57018D01*
X232463Y56434D01*
X231973Y56042D01*
X231385Y55748D01*
X230697Y55649D01*
X230112Y55649D01*
G37*
%LPD*%
%LPC*%
G36*
X255912Y25649D02*
X255912Y25649D01*
X255325Y25943D01*
X254734Y26337D01*
X254338Y26831D01*
X254334Y26832D01*
X254335Y26835D01*
X254149Y27020D01*
X254149Y28396D01*
X254247Y28985D01*
X254541Y29571D01*
X255033Y30063D01*
X255523Y30455D01*
X256207Y30651D01*
X256792Y30651D01*
X257378Y30455D01*
X257969Y30062D01*
X258457Y29573D01*
X258653Y28984D01*
X258850Y28395D01*
X258751Y27607D01*
X258653Y27018D01*
X258263Y26434D01*
X257773Y26042D01*
X257185Y25747D01*
X256596Y25649D01*
X255912Y25649D01*
G37*
%LPD*%
%LPC*%
G36*
X252446Y55618D02*
X252446Y55618D01*
X252405Y55643D01*
X252400Y55649D01*
X250440Y55649D01*
X250349Y56105D01*
X250349Y60180D01*
X250620Y60451D01*
X251988Y60451D01*
X252578Y60156D01*
X253166Y59862D01*
X253557Y59275D01*
X253851Y58688D01*
X253851Y57412D01*
X253557Y56825D01*
X253163Y56234D01*
X252669Y55838D01*
X252668Y55834D01*
X252665Y55835D01*
X252465Y55635D01*
X252459Y55593D01*
X252457Y55589D01*
X252446Y55618D01*
G37*
%LPD*%
%LPC*%
G36*
X200705Y40649D02*
X200705Y40649D01*
X200224Y40745D01*
X199941Y41029D01*
X199648Y41615D01*
X199549Y42406D01*
X199450Y43400D01*
X199549Y44391D01*
X199745Y45078D01*
X200035Y45465D01*
X200416Y45751D01*
X200891Y45751D01*
X201369Y45559D01*
X201656Y45177D01*
X201853Y44584D01*
X201902Y44551D01*
X201890Y44548D01*
X201851Y44503D01*
X201856Y44499D01*
X201851Y44494D01*
X201951Y43697D01*
X201951Y42703D01*
X201852Y41811D01*
X201657Y41227D01*
X201271Y40841D01*
X200888Y40649D01*
X200705Y40649D01*
G37*
%LPD*%
G36*
X208009Y38258D02*
X208009Y38258D01*
X208016Y38253D01*
X208616Y38453D01*
X208634Y38480D01*
X208647Y38484D01*
X208847Y39084D01*
X208843Y39095D01*
X208849Y39100D01*
X208849Y39900D01*
X208841Y39911D01*
X208846Y39918D01*
X208646Y40418D01*
X208624Y40431D01*
X208622Y40444D01*
X208022Y40744D01*
X208006Y40741D01*
X208000Y40749D01*
X207200Y40749D01*
X207187Y40740D01*
X207178Y40744D01*
X206578Y40444D01*
X206566Y40420D01*
X206553Y40416D01*
X206353Y39816D01*
X206357Y39805D01*
X206351Y39800D01*
X206351Y39100D01*
X206358Y39091D01*
X206353Y39084D01*
X206553Y38484D01*
X206578Y38467D01*
X206582Y38454D01*
X207082Y38254D01*
X207095Y38258D01*
X207100Y38251D01*
X208000Y38251D01*
X208009Y38258D01*
G37*
%LPC*%
G36*
X249749Y43249D02*
X249749Y43249D01*
X249749Y45175D01*
X250116Y45451D01*
X251392Y45451D01*
X251968Y45259D01*
X252351Y44685D01*
X252351Y44014D01*
X252063Y43534D01*
X251684Y43249D01*
X249749Y43249D01*
G37*
%LPD*%
%LPC*%
G36*
X303849Y58349D02*
X303849Y58349D01*
X303849Y60275D01*
X304216Y60551D01*
X305588Y60551D01*
X306163Y60263D01*
X306451Y59688D01*
X306451Y59017D01*
X306071Y58542D01*
X305492Y58349D01*
X303849Y58349D01*
G37*
%LPD*%
%LPC*%
G36*
X206337Y55544D02*
X206337Y55544D01*
X206151Y56104D01*
X206244Y56667D01*
X206812Y56951D01*
X207480Y56951D01*
X207951Y56480D01*
X207951Y55920D01*
X207576Y55546D01*
X206999Y55450D01*
X206337Y55544D01*
G37*
%LPD*%
%LPC*%
G36*
X209037Y25544D02*
X209037Y25544D01*
X208851Y26104D01*
X208944Y26667D01*
X209512Y26951D01*
X210180Y26951D01*
X210651Y26480D01*
X210651Y25920D01*
X210276Y25546D01*
X209699Y25450D01*
X209037Y25544D01*
G37*
%LPD*%
%LPC*%
G36*
X201905Y44555D02*
X201905Y44555D01*
X201908Y44552D01*
X201902Y44551D01*
X201905Y44555D01*
G37*
%LPD*%
M02*
