G04 EAGLE Gerber RS-274X export*
G75*
%MOMM*%
%FSLAX34Y34*%
%LPD*%
%INSoldermask Top*%
%IPPOS*%
%AMOC8*
5,1,8,0,0,1.08239X$1,22.5*%
G01*

G36*
X360008Y-498D02*
X360008Y-498D01*
X360017Y-499D01*
X360105Y-478D01*
X360195Y-460D01*
X360202Y-455D01*
X360210Y-453D01*
X360283Y-399D01*
X360359Y-347D01*
X360363Y-340D01*
X360370Y-335D01*
X360417Y-257D01*
X360466Y-180D01*
X360467Y-171D01*
X360472Y-164D01*
X360499Y0D01*
X360499Y85000D01*
X360498Y85008D01*
X360499Y85017D01*
X360478Y85105D01*
X360460Y85195D01*
X360455Y85202D01*
X360453Y85210D01*
X360399Y85283D01*
X360347Y85359D01*
X360340Y85363D01*
X360335Y85370D01*
X360257Y85417D01*
X360180Y85466D01*
X360171Y85467D01*
X360164Y85472D01*
X360000Y85499D01*
X340000Y85499D01*
X339992Y85498D01*
X339983Y85499D01*
X339895Y85478D01*
X339805Y85460D01*
X339798Y85455D01*
X339790Y85453D01*
X339717Y85399D01*
X339641Y85347D01*
X339637Y85340D01*
X339630Y85335D01*
X339583Y85257D01*
X339534Y85180D01*
X339533Y85171D01*
X339528Y85164D01*
X339501Y85000D01*
X339501Y0D01*
X339502Y-8D01*
X339501Y-17D01*
X339522Y-105D01*
X339540Y-195D01*
X339545Y-202D01*
X339547Y-210D01*
X339601Y-283D01*
X339653Y-359D01*
X339660Y-363D01*
X339665Y-370D01*
X339743Y-417D01*
X339820Y-466D01*
X339829Y-467D01*
X339836Y-472D01*
X340000Y-499D01*
X360000Y-499D01*
X360008Y-498D01*
G37*
G36*
X20008Y-498D02*
X20008Y-498D01*
X20017Y-499D01*
X20105Y-478D01*
X20195Y-460D01*
X20202Y-455D01*
X20210Y-453D01*
X20283Y-399D01*
X20359Y-347D01*
X20363Y-340D01*
X20370Y-335D01*
X20417Y-257D01*
X20466Y-180D01*
X20467Y-171D01*
X20472Y-164D01*
X20499Y0D01*
X20499Y85000D01*
X20498Y85008D01*
X20499Y85017D01*
X20478Y85105D01*
X20460Y85195D01*
X20455Y85202D01*
X20453Y85210D01*
X20399Y85283D01*
X20347Y85359D01*
X20340Y85363D01*
X20335Y85370D01*
X20257Y85417D01*
X20180Y85466D01*
X20171Y85467D01*
X20164Y85472D01*
X20000Y85499D01*
X0Y85499D01*
X-8Y85498D01*
X-17Y85499D01*
X-105Y85478D01*
X-195Y85460D01*
X-202Y85455D01*
X-210Y85453D01*
X-283Y85399D01*
X-359Y85347D01*
X-363Y85340D01*
X-370Y85335D01*
X-417Y85257D01*
X-466Y85180D01*
X-467Y85171D01*
X-472Y85164D01*
X-499Y85000D01*
X-499Y0D01*
X-498Y-8D01*
X-499Y-17D01*
X-478Y-105D01*
X-460Y-195D01*
X-455Y-202D01*
X-453Y-210D01*
X-399Y-283D01*
X-347Y-359D01*
X-340Y-363D01*
X-335Y-370D01*
X-257Y-417D01*
X-180Y-466D01*
X-171Y-467D01*
X-164Y-472D01*
X0Y-499D01*
X20000Y-499D01*
X20008Y-498D01*
G37*
M02*
