G04 EAGLE Gerber RS-274X export*
G75*
%MOMM*%
%FSLAX34Y34*%
%LPD*%
%IN*%
%IPPOS*%
%AMOC8*
5,1,8,0,0,1.08239X$1,22.5*%
G01*
%ADD10C,0.100000*%
%ADD11C,0.101600*%


D10*
X0Y0D02*
X0Y85000D01*
X360000Y85000D01*
X360000Y0D01*
X0Y0D01*
X0Y90000D02*
X0Y130000D01*
X30000Y130000D02*
X30000Y90000D01*
X-500Y115000D02*
X-40000Y115000D01*
X30500Y115000D02*
X84939Y115000D01*
X-500Y115000D02*
X-20000Y117456D01*
X-20000Y112544D01*
X-500Y115000D01*
X-20000Y116000D01*
X-20000Y114000D02*
X-500Y115000D01*
X-20000Y117000D01*
X-20000Y113000D02*
X-500Y115000D01*
X30500Y115000D02*
X50000Y117456D01*
X50000Y112544D01*
X30500Y115000D01*
X50000Y116000D01*
X50000Y114000D02*
X30500Y115000D01*
X50000Y117000D01*
X50000Y113000D02*
X30500Y115000D01*
D11*
X50508Y119683D02*
X53754Y119683D01*
X53867Y119685D01*
X53980Y119691D01*
X54093Y119701D01*
X54206Y119715D01*
X54318Y119732D01*
X54429Y119754D01*
X54539Y119779D01*
X54649Y119809D01*
X54757Y119842D01*
X54864Y119879D01*
X54970Y119919D01*
X55074Y119964D01*
X55177Y120012D01*
X55278Y120063D01*
X55377Y120118D01*
X55474Y120176D01*
X55569Y120238D01*
X55662Y120303D01*
X55752Y120371D01*
X55840Y120442D01*
X55926Y120517D01*
X56009Y120594D01*
X56089Y120674D01*
X56166Y120757D01*
X56241Y120843D01*
X56312Y120931D01*
X56380Y121021D01*
X56445Y121114D01*
X56507Y121209D01*
X56565Y121306D01*
X56620Y121405D01*
X56671Y121506D01*
X56719Y121609D01*
X56764Y121713D01*
X56804Y121819D01*
X56841Y121926D01*
X56874Y122034D01*
X56904Y122144D01*
X56929Y122254D01*
X56951Y122365D01*
X56968Y122477D01*
X56982Y122590D01*
X56992Y122703D01*
X56998Y122816D01*
X57000Y122929D01*
X56998Y123042D01*
X56992Y123155D01*
X56982Y123268D01*
X56968Y123381D01*
X56951Y123493D01*
X56929Y123604D01*
X56904Y123714D01*
X56874Y123824D01*
X56841Y123932D01*
X56804Y124039D01*
X56764Y124145D01*
X56719Y124249D01*
X56671Y124352D01*
X56620Y124453D01*
X56565Y124552D01*
X56507Y124649D01*
X56445Y124744D01*
X56380Y124837D01*
X56312Y124927D01*
X56241Y125015D01*
X56166Y125101D01*
X56089Y125184D01*
X56009Y125264D01*
X55926Y125341D01*
X55840Y125416D01*
X55752Y125487D01*
X55662Y125555D01*
X55569Y125620D01*
X55474Y125682D01*
X55377Y125740D01*
X55278Y125795D01*
X55177Y125846D01*
X55074Y125894D01*
X54970Y125939D01*
X54864Y125979D01*
X54757Y126016D01*
X54649Y126049D01*
X54539Y126079D01*
X54429Y126104D01*
X54318Y126126D01*
X54206Y126143D01*
X54093Y126157D01*
X53980Y126167D01*
X53867Y126173D01*
X53754Y126175D01*
X54403Y131367D02*
X50508Y131367D01*
X54403Y131367D02*
X54504Y131365D01*
X54604Y131359D01*
X54704Y131349D01*
X54804Y131336D01*
X54903Y131318D01*
X55002Y131297D01*
X55099Y131272D01*
X55196Y131243D01*
X55291Y131210D01*
X55385Y131174D01*
X55477Y131134D01*
X55568Y131091D01*
X55657Y131044D01*
X55744Y130994D01*
X55830Y130940D01*
X55913Y130883D01*
X55993Y130823D01*
X56072Y130760D01*
X56148Y130693D01*
X56221Y130624D01*
X56291Y130552D01*
X56359Y130478D01*
X56424Y130401D01*
X56485Y130321D01*
X56544Y130239D01*
X56599Y130155D01*
X56651Y130069D01*
X56700Y129981D01*
X56745Y129891D01*
X56787Y129799D01*
X56825Y129706D01*
X56859Y129611D01*
X56890Y129516D01*
X56917Y129419D01*
X56940Y129321D01*
X56960Y129222D01*
X56975Y129122D01*
X56987Y129022D01*
X56995Y128922D01*
X56999Y128821D01*
X56999Y128721D01*
X56995Y128620D01*
X56987Y128520D01*
X56975Y128420D01*
X56960Y128320D01*
X56940Y128221D01*
X56917Y128123D01*
X56890Y128026D01*
X56859Y127931D01*
X56825Y127836D01*
X56787Y127743D01*
X56745Y127651D01*
X56700Y127561D01*
X56651Y127473D01*
X56599Y127387D01*
X56544Y127303D01*
X56485Y127221D01*
X56424Y127141D01*
X56359Y127064D01*
X56291Y126990D01*
X56221Y126918D01*
X56148Y126849D01*
X56072Y126782D01*
X55993Y126719D01*
X55913Y126659D01*
X55830Y126602D01*
X55744Y126548D01*
X55657Y126498D01*
X55568Y126451D01*
X55477Y126408D01*
X55385Y126368D01*
X55291Y126332D01*
X55196Y126299D01*
X55099Y126270D01*
X55002Y126245D01*
X54903Y126224D01*
X54804Y126206D01*
X54704Y126193D01*
X54604Y126183D01*
X54504Y126177D01*
X54403Y126175D01*
X54403Y126174D02*
X51806Y126174D01*
X61430Y120332D02*
X61430Y119683D01*
X61430Y120332D02*
X62079Y120332D01*
X62079Y119683D01*
X61430Y119683D01*
X66510Y125525D02*
X66513Y125755D01*
X66521Y125985D01*
X66535Y126214D01*
X66554Y126443D01*
X66579Y126672D01*
X66609Y126899D01*
X66644Y127127D01*
X66685Y127353D01*
X66731Y127578D01*
X66783Y127802D01*
X66840Y128024D01*
X66902Y128246D01*
X66970Y128465D01*
X67043Y128683D01*
X67121Y128900D01*
X67204Y129114D01*
X67292Y129326D01*
X67385Y129536D01*
X67484Y129744D01*
X67483Y129744D02*
X67516Y129834D01*
X67552Y129923D01*
X67592Y130011D01*
X67636Y130096D01*
X67683Y130180D01*
X67733Y130262D01*
X67787Y130342D01*
X67843Y130419D01*
X67903Y130495D01*
X67966Y130568D01*
X68031Y130638D01*
X68100Y130706D01*
X68171Y130770D01*
X68244Y130832D01*
X68320Y130891D01*
X68398Y130947D01*
X68479Y131000D01*
X68561Y131049D01*
X68645Y131095D01*
X68732Y131138D01*
X68819Y131177D01*
X68909Y131213D01*
X68999Y131245D01*
X69091Y131273D01*
X69184Y131298D01*
X69278Y131319D01*
X69372Y131336D01*
X69467Y131350D01*
X69563Y131359D01*
X69659Y131365D01*
X69755Y131367D01*
X69851Y131365D01*
X69947Y131359D01*
X70043Y131350D01*
X70138Y131336D01*
X70232Y131319D01*
X70326Y131298D01*
X70419Y131273D01*
X70511Y131245D01*
X70601Y131213D01*
X70691Y131177D01*
X70778Y131138D01*
X70865Y131095D01*
X70949Y131049D01*
X71031Y131000D01*
X71112Y130947D01*
X71190Y130891D01*
X71266Y130832D01*
X71339Y130770D01*
X71410Y130706D01*
X71479Y130638D01*
X71544Y130568D01*
X71607Y130495D01*
X71667Y130419D01*
X71723Y130342D01*
X71777Y130262D01*
X71827Y130180D01*
X71874Y130096D01*
X71918Y130011D01*
X71958Y129923D01*
X71994Y129834D01*
X72027Y129744D01*
X72028Y129744D02*
X72127Y129537D01*
X72220Y129327D01*
X72308Y129114D01*
X72391Y128900D01*
X72469Y128684D01*
X72542Y128466D01*
X72610Y128246D01*
X72672Y128025D01*
X72729Y127802D01*
X72781Y127578D01*
X72827Y127353D01*
X72868Y127127D01*
X72903Y126900D01*
X72933Y126672D01*
X72958Y126443D01*
X72977Y126214D01*
X72991Y125985D01*
X72999Y125755D01*
X73002Y125525D01*
X66510Y125525D02*
X66513Y125295D01*
X66521Y125065D01*
X66535Y124836D01*
X66554Y124607D01*
X66579Y124378D01*
X66609Y124150D01*
X66644Y123923D01*
X66685Y123697D01*
X66731Y123472D01*
X66783Y123248D01*
X66840Y123025D01*
X66902Y122804D01*
X66970Y122584D01*
X67043Y122366D01*
X67121Y122150D01*
X67204Y121936D01*
X67292Y121724D01*
X67385Y121513D01*
X67484Y121306D01*
X67483Y121306D02*
X67516Y121216D01*
X67552Y121127D01*
X67593Y121039D01*
X67636Y120954D01*
X67683Y120870D01*
X67733Y120788D01*
X67787Y120708D01*
X67843Y120631D01*
X67903Y120555D01*
X67966Y120482D01*
X68031Y120412D01*
X68100Y120344D01*
X68171Y120280D01*
X68244Y120218D01*
X68320Y120159D01*
X68398Y120103D01*
X68479Y120050D01*
X68561Y120001D01*
X68645Y119955D01*
X68732Y119912D01*
X68819Y119873D01*
X68909Y119837D01*
X68999Y119805D01*
X69091Y119777D01*
X69184Y119752D01*
X69278Y119731D01*
X69372Y119714D01*
X69467Y119700D01*
X69563Y119691D01*
X69659Y119685D01*
X69755Y119683D01*
X72027Y121306D02*
X72126Y121513D01*
X72219Y121724D01*
X72307Y121936D01*
X72390Y122150D01*
X72468Y122366D01*
X72541Y122584D01*
X72609Y122804D01*
X72671Y123025D01*
X72728Y123248D01*
X72780Y123472D01*
X72826Y123697D01*
X72867Y123923D01*
X72902Y124150D01*
X72932Y124378D01*
X72957Y124607D01*
X72976Y124836D01*
X72990Y125065D01*
X72998Y125295D01*
X73001Y125525D01*
X72027Y121306D02*
X71994Y121216D01*
X71958Y121127D01*
X71918Y121039D01*
X71874Y120954D01*
X71827Y120870D01*
X71777Y120788D01*
X71723Y120708D01*
X71667Y120631D01*
X71607Y120555D01*
X71544Y120482D01*
X71479Y120412D01*
X71410Y120344D01*
X71339Y120280D01*
X71266Y120218D01*
X71190Y120159D01*
X71112Y120103D01*
X71031Y120050D01*
X70949Y120001D01*
X70865Y119955D01*
X70778Y119912D01*
X70691Y119873D01*
X70601Y119837D01*
X70511Y119805D01*
X70419Y119777D01*
X70326Y119752D01*
X70232Y119731D01*
X70138Y119714D01*
X70043Y119700D01*
X69947Y119691D01*
X69851Y119685D01*
X69755Y119683D01*
X67159Y122279D02*
X72352Y128771D01*
X77940Y125525D02*
X77943Y125755D01*
X77951Y125985D01*
X77965Y126214D01*
X77984Y126443D01*
X78009Y126672D01*
X78039Y126899D01*
X78074Y127127D01*
X78115Y127353D01*
X78161Y127578D01*
X78213Y127802D01*
X78270Y128024D01*
X78332Y128246D01*
X78400Y128465D01*
X78473Y128683D01*
X78551Y128900D01*
X78634Y129114D01*
X78722Y129326D01*
X78815Y129536D01*
X78914Y129744D01*
X78913Y129744D02*
X78946Y129834D01*
X78982Y129923D01*
X79022Y130011D01*
X79066Y130096D01*
X79113Y130180D01*
X79163Y130262D01*
X79217Y130342D01*
X79273Y130419D01*
X79333Y130495D01*
X79396Y130568D01*
X79461Y130638D01*
X79530Y130706D01*
X79601Y130770D01*
X79674Y130832D01*
X79750Y130891D01*
X79828Y130947D01*
X79909Y131000D01*
X79991Y131049D01*
X80075Y131095D01*
X80162Y131138D01*
X80249Y131177D01*
X80339Y131213D01*
X80429Y131245D01*
X80521Y131273D01*
X80614Y131298D01*
X80708Y131319D01*
X80802Y131336D01*
X80897Y131350D01*
X80993Y131359D01*
X81089Y131365D01*
X81185Y131367D01*
X81281Y131365D01*
X81377Y131359D01*
X81473Y131350D01*
X81568Y131336D01*
X81662Y131319D01*
X81756Y131298D01*
X81849Y131273D01*
X81941Y131245D01*
X82031Y131213D01*
X82121Y131177D01*
X82208Y131138D01*
X82295Y131095D01*
X82379Y131049D01*
X82461Y131000D01*
X82542Y130947D01*
X82620Y130891D01*
X82696Y130832D01*
X82769Y130770D01*
X82840Y130706D01*
X82909Y130638D01*
X82974Y130568D01*
X83037Y130495D01*
X83097Y130419D01*
X83153Y130342D01*
X83207Y130262D01*
X83257Y130180D01*
X83304Y130096D01*
X83348Y130011D01*
X83388Y129923D01*
X83424Y129834D01*
X83457Y129744D01*
X83458Y129744D02*
X83557Y129537D01*
X83650Y129327D01*
X83738Y129114D01*
X83821Y128900D01*
X83899Y128684D01*
X83972Y128466D01*
X84040Y128246D01*
X84102Y128025D01*
X84159Y127802D01*
X84211Y127578D01*
X84257Y127353D01*
X84298Y127127D01*
X84333Y126900D01*
X84363Y126672D01*
X84388Y126443D01*
X84407Y126214D01*
X84421Y125985D01*
X84429Y125755D01*
X84432Y125525D01*
X77940Y125525D02*
X77943Y125295D01*
X77951Y125065D01*
X77965Y124836D01*
X77984Y124607D01*
X78009Y124378D01*
X78039Y124150D01*
X78074Y123923D01*
X78115Y123697D01*
X78161Y123472D01*
X78213Y123248D01*
X78270Y123025D01*
X78332Y122804D01*
X78400Y122584D01*
X78473Y122366D01*
X78551Y122150D01*
X78634Y121936D01*
X78722Y121724D01*
X78815Y121513D01*
X78914Y121306D01*
X78913Y121306D02*
X78946Y121216D01*
X78982Y121127D01*
X79023Y121039D01*
X79066Y120954D01*
X79113Y120870D01*
X79163Y120788D01*
X79217Y120708D01*
X79273Y120631D01*
X79333Y120555D01*
X79396Y120482D01*
X79461Y120412D01*
X79530Y120344D01*
X79601Y120280D01*
X79674Y120218D01*
X79750Y120159D01*
X79828Y120103D01*
X79909Y120050D01*
X79991Y120001D01*
X80075Y119955D01*
X80162Y119912D01*
X80249Y119873D01*
X80339Y119837D01*
X80429Y119805D01*
X80521Y119777D01*
X80614Y119752D01*
X80708Y119731D01*
X80802Y119714D01*
X80897Y119700D01*
X80993Y119691D01*
X81089Y119685D01*
X81185Y119683D01*
X83457Y121306D02*
X83556Y121513D01*
X83649Y121724D01*
X83737Y121936D01*
X83820Y122150D01*
X83898Y122366D01*
X83971Y122584D01*
X84039Y122804D01*
X84101Y123025D01*
X84158Y123248D01*
X84210Y123472D01*
X84256Y123697D01*
X84297Y123923D01*
X84332Y124150D01*
X84362Y124378D01*
X84387Y124607D01*
X84406Y124836D01*
X84420Y125065D01*
X84428Y125295D01*
X84431Y125525D01*
X83457Y121306D02*
X83424Y121216D01*
X83388Y121127D01*
X83348Y121039D01*
X83304Y120954D01*
X83257Y120870D01*
X83207Y120788D01*
X83153Y120708D01*
X83097Y120631D01*
X83037Y120555D01*
X82974Y120482D01*
X82909Y120412D01*
X82840Y120344D01*
X82769Y120280D01*
X82696Y120218D01*
X82620Y120159D01*
X82542Y120103D01*
X82461Y120050D01*
X82379Y120001D01*
X82295Y119955D01*
X82208Y119912D01*
X82121Y119873D01*
X82031Y119837D01*
X81941Y119805D01*
X81849Y119777D01*
X81756Y119752D01*
X81662Y119731D01*
X81568Y119714D01*
X81473Y119700D01*
X81377Y119691D01*
X81281Y119685D01*
X81185Y119683D01*
X78589Y122279D02*
X83782Y128771D01*
D10*
X360000Y130000D02*
X360000Y90000D01*
X330000Y90000D02*
X330000Y130000D01*
X329500Y115000D02*
X290000Y115000D01*
X360500Y115000D02*
X414939Y115000D01*
X380000Y117456D02*
X360500Y115000D01*
X380000Y117456D02*
X380000Y112544D01*
X360500Y115000D01*
X380000Y116000D01*
X380000Y114000D02*
X360500Y115000D01*
X380000Y117000D01*
X380000Y113000D02*
X360500Y115000D01*
X329500Y115000D02*
X310000Y117456D01*
X310000Y112544D01*
X329500Y115000D01*
X310000Y116000D01*
X310000Y114000D02*
X329500Y115000D01*
X310000Y117000D01*
X310000Y113000D02*
X329500Y115000D01*
D11*
X380508Y119683D02*
X383754Y119683D01*
X383867Y119685D01*
X383980Y119691D01*
X384093Y119701D01*
X384206Y119715D01*
X384318Y119732D01*
X384429Y119754D01*
X384539Y119779D01*
X384649Y119809D01*
X384757Y119842D01*
X384864Y119879D01*
X384970Y119919D01*
X385074Y119964D01*
X385177Y120012D01*
X385278Y120063D01*
X385377Y120118D01*
X385474Y120176D01*
X385569Y120238D01*
X385662Y120303D01*
X385752Y120371D01*
X385840Y120442D01*
X385926Y120517D01*
X386009Y120594D01*
X386089Y120674D01*
X386166Y120757D01*
X386241Y120843D01*
X386312Y120931D01*
X386380Y121021D01*
X386445Y121114D01*
X386507Y121209D01*
X386565Y121306D01*
X386620Y121405D01*
X386671Y121506D01*
X386719Y121609D01*
X386764Y121713D01*
X386804Y121819D01*
X386841Y121926D01*
X386874Y122034D01*
X386904Y122144D01*
X386929Y122254D01*
X386951Y122365D01*
X386968Y122477D01*
X386982Y122590D01*
X386992Y122703D01*
X386998Y122816D01*
X387000Y122929D01*
X386998Y123042D01*
X386992Y123155D01*
X386982Y123268D01*
X386968Y123381D01*
X386951Y123493D01*
X386929Y123604D01*
X386904Y123714D01*
X386874Y123824D01*
X386841Y123932D01*
X386804Y124039D01*
X386764Y124145D01*
X386719Y124249D01*
X386671Y124352D01*
X386620Y124453D01*
X386565Y124552D01*
X386507Y124649D01*
X386445Y124744D01*
X386380Y124837D01*
X386312Y124927D01*
X386241Y125015D01*
X386166Y125101D01*
X386089Y125184D01*
X386009Y125264D01*
X385926Y125341D01*
X385840Y125416D01*
X385752Y125487D01*
X385662Y125555D01*
X385569Y125620D01*
X385474Y125682D01*
X385377Y125740D01*
X385278Y125795D01*
X385177Y125846D01*
X385074Y125894D01*
X384970Y125939D01*
X384864Y125979D01*
X384757Y126016D01*
X384649Y126049D01*
X384539Y126079D01*
X384429Y126104D01*
X384318Y126126D01*
X384206Y126143D01*
X384093Y126157D01*
X383980Y126167D01*
X383867Y126173D01*
X383754Y126175D01*
X384403Y131367D02*
X380508Y131367D01*
X384403Y131367D02*
X384504Y131365D01*
X384604Y131359D01*
X384704Y131349D01*
X384804Y131336D01*
X384903Y131318D01*
X385002Y131297D01*
X385099Y131272D01*
X385196Y131243D01*
X385291Y131210D01*
X385385Y131174D01*
X385477Y131134D01*
X385568Y131091D01*
X385657Y131044D01*
X385744Y130994D01*
X385830Y130940D01*
X385913Y130883D01*
X385993Y130823D01*
X386072Y130760D01*
X386148Y130693D01*
X386221Y130624D01*
X386291Y130552D01*
X386359Y130478D01*
X386424Y130401D01*
X386485Y130321D01*
X386544Y130239D01*
X386599Y130155D01*
X386651Y130069D01*
X386700Y129981D01*
X386745Y129891D01*
X386787Y129799D01*
X386825Y129706D01*
X386859Y129611D01*
X386890Y129516D01*
X386917Y129419D01*
X386940Y129321D01*
X386960Y129222D01*
X386975Y129122D01*
X386987Y129022D01*
X386995Y128922D01*
X386999Y128821D01*
X386999Y128721D01*
X386995Y128620D01*
X386987Y128520D01*
X386975Y128420D01*
X386960Y128320D01*
X386940Y128221D01*
X386917Y128123D01*
X386890Y128026D01*
X386859Y127931D01*
X386825Y127836D01*
X386787Y127743D01*
X386745Y127651D01*
X386700Y127561D01*
X386651Y127473D01*
X386599Y127387D01*
X386544Y127303D01*
X386485Y127221D01*
X386424Y127141D01*
X386359Y127064D01*
X386291Y126990D01*
X386221Y126918D01*
X386148Y126849D01*
X386072Y126782D01*
X385993Y126719D01*
X385913Y126659D01*
X385830Y126602D01*
X385744Y126548D01*
X385657Y126498D01*
X385568Y126451D01*
X385477Y126408D01*
X385385Y126368D01*
X385291Y126332D01*
X385196Y126299D01*
X385099Y126270D01*
X385002Y126245D01*
X384903Y126224D01*
X384804Y126206D01*
X384704Y126193D01*
X384604Y126183D01*
X384504Y126177D01*
X384403Y126175D01*
X384403Y126174D02*
X381806Y126174D01*
X391430Y120332D02*
X391430Y119683D01*
X391430Y120332D02*
X392079Y120332D01*
X392079Y119683D01*
X391430Y119683D01*
X396510Y125525D02*
X396513Y125755D01*
X396521Y125985D01*
X396535Y126214D01*
X396554Y126443D01*
X396579Y126672D01*
X396609Y126899D01*
X396644Y127127D01*
X396685Y127353D01*
X396731Y127578D01*
X396783Y127802D01*
X396840Y128024D01*
X396902Y128246D01*
X396970Y128465D01*
X397043Y128683D01*
X397121Y128900D01*
X397204Y129114D01*
X397292Y129326D01*
X397385Y129536D01*
X397484Y129744D01*
X397483Y129744D02*
X397516Y129834D01*
X397552Y129923D01*
X397592Y130011D01*
X397636Y130096D01*
X397683Y130180D01*
X397733Y130262D01*
X397787Y130342D01*
X397843Y130419D01*
X397903Y130495D01*
X397966Y130568D01*
X398031Y130638D01*
X398100Y130706D01*
X398171Y130770D01*
X398244Y130832D01*
X398320Y130891D01*
X398398Y130947D01*
X398479Y131000D01*
X398561Y131049D01*
X398645Y131095D01*
X398732Y131138D01*
X398819Y131177D01*
X398909Y131213D01*
X398999Y131245D01*
X399091Y131273D01*
X399184Y131298D01*
X399278Y131319D01*
X399372Y131336D01*
X399467Y131350D01*
X399563Y131359D01*
X399659Y131365D01*
X399755Y131367D01*
X399851Y131365D01*
X399947Y131359D01*
X400043Y131350D01*
X400138Y131336D01*
X400232Y131319D01*
X400326Y131298D01*
X400419Y131273D01*
X400511Y131245D01*
X400601Y131213D01*
X400691Y131177D01*
X400778Y131138D01*
X400865Y131095D01*
X400949Y131049D01*
X401031Y131000D01*
X401112Y130947D01*
X401190Y130891D01*
X401266Y130832D01*
X401339Y130770D01*
X401410Y130706D01*
X401479Y130638D01*
X401544Y130568D01*
X401607Y130495D01*
X401667Y130419D01*
X401723Y130342D01*
X401777Y130262D01*
X401827Y130180D01*
X401874Y130096D01*
X401918Y130011D01*
X401958Y129923D01*
X401994Y129834D01*
X402027Y129744D01*
X402028Y129744D02*
X402127Y129537D01*
X402220Y129327D01*
X402308Y129114D01*
X402391Y128900D01*
X402469Y128684D01*
X402542Y128466D01*
X402610Y128246D01*
X402672Y128025D01*
X402729Y127802D01*
X402781Y127578D01*
X402827Y127353D01*
X402868Y127127D01*
X402903Y126900D01*
X402933Y126672D01*
X402958Y126443D01*
X402977Y126214D01*
X402991Y125985D01*
X402999Y125755D01*
X403002Y125525D01*
X396510Y125525D02*
X396513Y125295D01*
X396521Y125065D01*
X396535Y124836D01*
X396554Y124607D01*
X396579Y124378D01*
X396609Y124150D01*
X396644Y123923D01*
X396685Y123697D01*
X396731Y123472D01*
X396783Y123248D01*
X396840Y123025D01*
X396902Y122804D01*
X396970Y122584D01*
X397043Y122366D01*
X397121Y122150D01*
X397204Y121936D01*
X397292Y121724D01*
X397385Y121513D01*
X397484Y121306D01*
X397483Y121306D02*
X397516Y121216D01*
X397552Y121127D01*
X397593Y121039D01*
X397636Y120954D01*
X397683Y120870D01*
X397733Y120788D01*
X397787Y120708D01*
X397843Y120631D01*
X397903Y120555D01*
X397966Y120482D01*
X398031Y120412D01*
X398100Y120344D01*
X398171Y120280D01*
X398244Y120218D01*
X398320Y120159D01*
X398398Y120103D01*
X398479Y120050D01*
X398561Y120001D01*
X398645Y119955D01*
X398732Y119912D01*
X398819Y119873D01*
X398909Y119837D01*
X398999Y119805D01*
X399091Y119777D01*
X399184Y119752D01*
X399278Y119731D01*
X399372Y119714D01*
X399467Y119700D01*
X399563Y119691D01*
X399659Y119685D01*
X399755Y119683D01*
X402027Y121306D02*
X402126Y121513D01*
X402219Y121724D01*
X402307Y121936D01*
X402390Y122150D01*
X402468Y122366D01*
X402541Y122584D01*
X402609Y122804D01*
X402671Y123025D01*
X402728Y123248D01*
X402780Y123472D01*
X402826Y123697D01*
X402867Y123923D01*
X402902Y124150D01*
X402932Y124378D01*
X402957Y124607D01*
X402976Y124836D01*
X402990Y125065D01*
X402998Y125295D01*
X403001Y125525D01*
X402027Y121306D02*
X401994Y121216D01*
X401958Y121127D01*
X401918Y121039D01*
X401874Y120954D01*
X401827Y120870D01*
X401777Y120788D01*
X401723Y120708D01*
X401667Y120631D01*
X401607Y120555D01*
X401544Y120482D01*
X401479Y120412D01*
X401410Y120344D01*
X401339Y120280D01*
X401266Y120218D01*
X401190Y120159D01*
X401112Y120103D01*
X401031Y120050D01*
X400949Y120001D01*
X400865Y119955D01*
X400778Y119912D01*
X400691Y119873D01*
X400601Y119837D01*
X400511Y119805D01*
X400419Y119777D01*
X400326Y119752D01*
X400232Y119731D01*
X400138Y119714D01*
X400043Y119700D01*
X399947Y119691D01*
X399851Y119685D01*
X399755Y119683D01*
X397159Y122279D02*
X402352Y128771D01*
X407940Y125525D02*
X407943Y125755D01*
X407951Y125985D01*
X407965Y126214D01*
X407984Y126443D01*
X408009Y126672D01*
X408039Y126899D01*
X408074Y127127D01*
X408115Y127353D01*
X408161Y127578D01*
X408213Y127802D01*
X408270Y128024D01*
X408332Y128246D01*
X408400Y128465D01*
X408473Y128683D01*
X408551Y128900D01*
X408634Y129114D01*
X408722Y129326D01*
X408815Y129536D01*
X408914Y129744D01*
X408913Y129744D02*
X408946Y129834D01*
X408982Y129923D01*
X409022Y130011D01*
X409066Y130096D01*
X409113Y130180D01*
X409163Y130262D01*
X409217Y130342D01*
X409273Y130419D01*
X409333Y130495D01*
X409396Y130568D01*
X409461Y130638D01*
X409530Y130706D01*
X409601Y130770D01*
X409674Y130832D01*
X409750Y130891D01*
X409828Y130947D01*
X409909Y131000D01*
X409991Y131049D01*
X410075Y131095D01*
X410162Y131138D01*
X410249Y131177D01*
X410339Y131213D01*
X410429Y131245D01*
X410521Y131273D01*
X410614Y131298D01*
X410708Y131319D01*
X410802Y131336D01*
X410897Y131350D01*
X410993Y131359D01*
X411089Y131365D01*
X411185Y131367D01*
X411281Y131365D01*
X411377Y131359D01*
X411473Y131350D01*
X411568Y131336D01*
X411662Y131319D01*
X411756Y131298D01*
X411849Y131273D01*
X411941Y131245D01*
X412031Y131213D01*
X412121Y131177D01*
X412208Y131138D01*
X412295Y131095D01*
X412379Y131049D01*
X412461Y131000D01*
X412542Y130947D01*
X412620Y130891D01*
X412696Y130832D01*
X412769Y130770D01*
X412840Y130706D01*
X412909Y130638D01*
X412974Y130568D01*
X413037Y130495D01*
X413097Y130419D01*
X413153Y130342D01*
X413207Y130262D01*
X413257Y130180D01*
X413304Y130096D01*
X413348Y130011D01*
X413388Y129923D01*
X413424Y129834D01*
X413457Y129744D01*
X413458Y129744D02*
X413557Y129537D01*
X413650Y129327D01*
X413738Y129114D01*
X413821Y128900D01*
X413899Y128684D01*
X413972Y128466D01*
X414040Y128246D01*
X414102Y128025D01*
X414159Y127802D01*
X414211Y127578D01*
X414257Y127353D01*
X414298Y127127D01*
X414333Y126900D01*
X414363Y126672D01*
X414388Y126443D01*
X414407Y126214D01*
X414421Y125985D01*
X414429Y125755D01*
X414432Y125525D01*
X407940Y125525D02*
X407943Y125295D01*
X407951Y125065D01*
X407965Y124836D01*
X407984Y124607D01*
X408009Y124378D01*
X408039Y124150D01*
X408074Y123923D01*
X408115Y123697D01*
X408161Y123472D01*
X408213Y123248D01*
X408270Y123025D01*
X408332Y122804D01*
X408400Y122584D01*
X408473Y122366D01*
X408551Y122150D01*
X408634Y121936D01*
X408722Y121724D01*
X408815Y121513D01*
X408914Y121306D01*
X408913Y121306D02*
X408946Y121216D01*
X408982Y121127D01*
X409023Y121039D01*
X409066Y120954D01*
X409113Y120870D01*
X409163Y120788D01*
X409217Y120708D01*
X409273Y120631D01*
X409333Y120555D01*
X409396Y120482D01*
X409461Y120412D01*
X409530Y120344D01*
X409601Y120280D01*
X409674Y120218D01*
X409750Y120159D01*
X409828Y120103D01*
X409909Y120050D01*
X409991Y120001D01*
X410075Y119955D01*
X410162Y119912D01*
X410249Y119873D01*
X410339Y119837D01*
X410429Y119805D01*
X410521Y119777D01*
X410614Y119752D01*
X410708Y119731D01*
X410802Y119714D01*
X410897Y119700D01*
X410993Y119691D01*
X411089Y119685D01*
X411185Y119683D01*
X413457Y121306D02*
X413556Y121513D01*
X413649Y121724D01*
X413737Y121936D01*
X413820Y122150D01*
X413898Y122366D01*
X413971Y122584D01*
X414039Y122804D01*
X414101Y123025D01*
X414158Y123248D01*
X414210Y123472D01*
X414256Y123697D01*
X414297Y123923D01*
X414332Y124150D01*
X414362Y124378D01*
X414387Y124607D01*
X414406Y124836D01*
X414420Y125065D01*
X414428Y125295D01*
X414431Y125525D01*
X413457Y121306D02*
X413424Y121216D01*
X413388Y121127D01*
X413348Y121039D01*
X413304Y120954D01*
X413257Y120870D01*
X413207Y120788D01*
X413153Y120708D01*
X413097Y120631D01*
X413037Y120555D01*
X412974Y120482D01*
X412909Y120412D01*
X412840Y120344D01*
X412769Y120280D01*
X412696Y120218D01*
X412620Y120159D01*
X412542Y120103D01*
X412461Y120050D01*
X412379Y120001D01*
X412295Y119955D01*
X412208Y119912D01*
X412121Y119873D01*
X412031Y119837D01*
X411941Y119805D01*
X411849Y119777D01*
X411756Y119752D01*
X411662Y119731D01*
X411568Y119714D01*
X411473Y119700D01*
X411377Y119691D01*
X411281Y119685D01*
X411185Y119683D01*
X408589Y122279D02*
X413782Y128771D01*
X-13001Y143104D02*
X-13003Y143005D01*
X-13009Y142905D01*
X-13018Y142806D01*
X-13031Y142708D01*
X-13048Y142610D01*
X-13069Y142512D01*
X-13094Y142416D01*
X-13122Y142321D01*
X-13154Y142227D01*
X-13189Y142134D01*
X-13228Y142042D01*
X-13271Y141952D01*
X-13316Y141864D01*
X-13366Y141777D01*
X-13418Y141693D01*
X-13474Y141610D01*
X-13532Y141530D01*
X-13594Y141452D01*
X-13659Y141377D01*
X-13727Y141304D01*
X-13797Y141234D01*
X-13870Y141166D01*
X-13945Y141101D01*
X-14023Y141039D01*
X-14103Y140981D01*
X-14186Y140925D01*
X-14270Y140873D01*
X-14357Y140823D01*
X-14445Y140778D01*
X-14535Y140735D01*
X-14627Y140696D01*
X-14720Y140661D01*
X-14814Y140629D01*
X-14909Y140601D01*
X-15005Y140576D01*
X-15103Y140555D01*
X-15201Y140538D01*
X-15299Y140525D01*
X-15398Y140516D01*
X-15498Y140510D01*
X-15597Y140508D01*
X-15741Y140510D01*
X-15886Y140516D01*
X-16030Y140525D01*
X-16173Y140538D01*
X-16317Y140555D01*
X-16460Y140576D01*
X-16602Y140601D01*
X-16743Y140629D01*
X-16884Y140661D01*
X-17024Y140697D01*
X-17163Y140736D01*
X-17301Y140779D01*
X-17437Y140826D01*
X-17573Y140876D01*
X-17707Y140930D01*
X-17839Y140987D01*
X-17970Y141048D01*
X-18099Y141112D01*
X-18227Y141180D01*
X-18353Y141251D01*
X-18477Y141325D01*
X-18598Y141402D01*
X-18718Y141483D01*
X-18836Y141566D01*
X-18951Y141653D01*
X-19064Y141743D01*
X-19175Y141836D01*
X-19283Y141931D01*
X-19389Y142030D01*
X-19492Y142131D01*
X-19167Y149596D02*
X-19165Y149695D01*
X-19159Y149795D01*
X-19150Y149894D01*
X-19137Y149992D01*
X-19120Y150090D01*
X-19099Y150188D01*
X-19074Y150284D01*
X-19046Y150379D01*
X-19014Y150473D01*
X-18979Y150566D01*
X-18940Y150658D01*
X-18897Y150748D01*
X-18852Y150836D01*
X-18802Y150923D01*
X-18750Y151007D01*
X-18694Y151090D01*
X-18636Y151170D01*
X-18574Y151248D01*
X-18509Y151323D01*
X-18441Y151396D01*
X-18371Y151466D01*
X-18298Y151534D01*
X-18223Y151599D01*
X-18145Y151661D01*
X-18065Y151719D01*
X-17982Y151775D01*
X-17898Y151827D01*
X-17811Y151877D01*
X-17723Y151922D01*
X-17633Y151965D01*
X-17541Y152004D01*
X-17448Y152039D01*
X-17354Y152071D01*
X-17259Y152099D01*
X-17163Y152124D01*
X-17065Y152145D01*
X-16967Y152162D01*
X-16869Y152175D01*
X-16770Y152184D01*
X-16670Y152190D01*
X-16571Y152192D01*
X-16435Y152190D01*
X-16299Y152184D01*
X-16163Y152175D01*
X-16027Y152162D01*
X-15892Y152144D01*
X-15758Y152124D01*
X-15624Y152099D01*
X-15490Y152071D01*
X-15358Y152038D01*
X-15227Y152003D01*
X-15096Y151963D01*
X-14967Y151920D01*
X-14839Y151874D01*
X-14713Y151823D01*
X-14587Y151770D01*
X-14464Y151712D01*
X-14342Y151652D01*
X-14222Y151588D01*
X-14103Y151520D01*
X-13987Y151450D01*
X-13873Y151376D01*
X-13760Y151299D01*
X-13650Y151218D01*
X-17869Y147324D02*
X-17955Y147377D01*
X-18039Y147434D01*
X-18121Y147493D01*
X-18201Y147556D01*
X-18278Y147622D01*
X-18353Y147690D01*
X-18425Y147762D01*
X-18494Y147836D01*
X-18560Y147913D01*
X-18623Y147992D01*
X-18683Y148074D01*
X-18740Y148158D01*
X-18794Y148244D01*
X-18844Y148332D01*
X-18891Y148422D01*
X-18935Y148513D01*
X-18974Y148607D01*
X-19011Y148701D01*
X-19043Y148797D01*
X-19072Y148895D01*
X-19097Y148993D01*
X-19118Y149092D01*
X-19136Y149192D01*
X-19149Y149292D01*
X-19159Y149393D01*
X-19165Y149495D01*
X-19167Y149596D01*
X-14299Y145376D02*
X-14213Y145323D01*
X-14129Y145266D01*
X-14047Y145207D01*
X-13967Y145144D01*
X-13890Y145078D01*
X-13815Y145010D01*
X-13743Y144938D01*
X-13674Y144864D01*
X-13608Y144787D01*
X-13545Y144708D01*
X-13485Y144626D01*
X-13428Y144542D01*
X-13374Y144456D01*
X-13324Y144368D01*
X-13277Y144278D01*
X-13233Y144187D01*
X-13194Y144093D01*
X-13157Y143999D01*
X-13125Y143903D01*
X-13096Y143805D01*
X-13071Y143707D01*
X-13050Y143608D01*
X-13032Y143508D01*
X-13019Y143408D01*
X-13009Y143307D01*
X-13003Y143205D01*
X-13001Y143104D01*
X-14299Y145376D02*
X-17869Y147324D01*
X-9523Y148297D02*
X-5629Y148297D01*
X-8225Y152192D02*
X-8225Y142455D01*
X-8223Y142368D01*
X-8217Y142280D01*
X-8207Y142194D01*
X-8194Y142107D01*
X-8176Y142022D01*
X-8155Y141937D01*
X-8130Y141853D01*
X-8101Y141771D01*
X-8068Y141690D01*
X-8032Y141610D01*
X-7993Y141532D01*
X-7949Y141456D01*
X-7903Y141382D01*
X-7853Y141311D01*
X-7800Y141241D01*
X-7744Y141174D01*
X-7685Y141110D01*
X-7623Y141048D01*
X-7559Y140989D01*
X-7492Y140933D01*
X-7422Y140880D01*
X-7351Y140830D01*
X-7277Y140784D01*
X-7201Y140740D01*
X-7123Y140701D01*
X-7043Y140665D01*
X-6962Y140632D01*
X-6880Y140603D01*
X-6796Y140578D01*
X-6711Y140557D01*
X-6626Y140539D01*
X-6539Y140526D01*
X-6453Y140516D01*
X-6365Y140510D01*
X-6278Y140508D01*
X-5629Y140508D01*
X-1388Y140508D02*
X-1388Y148297D01*
X-1712Y151543D02*
X-1712Y152192D01*
X-1063Y152192D01*
X-1063Y151543D01*
X-1712Y151543D01*
X3882Y150245D02*
X3882Y140508D01*
X3882Y150245D02*
X3884Y150332D01*
X3890Y150420D01*
X3900Y150506D01*
X3913Y150593D01*
X3931Y150678D01*
X3952Y150763D01*
X3977Y150847D01*
X4006Y150929D01*
X4039Y151010D01*
X4075Y151090D01*
X4114Y151168D01*
X4158Y151244D01*
X4204Y151318D01*
X4254Y151389D01*
X4307Y151459D01*
X4363Y151526D01*
X4422Y151590D01*
X4483Y151652D01*
X4548Y151711D01*
X4615Y151767D01*
X4685Y151820D01*
X4756Y151870D01*
X4830Y151916D01*
X4906Y151960D01*
X4984Y151999D01*
X5064Y152035D01*
X5145Y152068D01*
X5227Y152097D01*
X5311Y152122D01*
X5396Y152143D01*
X5481Y152161D01*
X5568Y152174D01*
X5654Y152184D01*
X5742Y152190D01*
X5829Y152192D01*
X6478Y152192D01*
X6478Y148297D02*
X2583Y148297D01*
X10359Y150245D02*
X10359Y140508D01*
X10359Y150245D02*
X10361Y150332D01*
X10367Y150420D01*
X10377Y150506D01*
X10390Y150593D01*
X10408Y150678D01*
X10429Y150763D01*
X10454Y150847D01*
X10483Y150929D01*
X10516Y151010D01*
X10552Y151090D01*
X10591Y151168D01*
X10635Y151244D01*
X10681Y151318D01*
X10731Y151389D01*
X10784Y151459D01*
X10840Y151526D01*
X10899Y151590D01*
X10960Y151652D01*
X11025Y151711D01*
X11092Y151767D01*
X11162Y151820D01*
X11233Y151870D01*
X11307Y151916D01*
X11383Y151960D01*
X11461Y151999D01*
X11541Y152035D01*
X11622Y152068D01*
X11704Y152097D01*
X11788Y152122D01*
X11873Y152143D01*
X11958Y152161D01*
X12045Y152174D01*
X12131Y152184D01*
X12219Y152190D01*
X12306Y152192D01*
X12955Y152192D01*
X12955Y148297D02*
X9060Y148297D01*
X18156Y140508D02*
X21402Y140508D01*
X18156Y140508D02*
X18069Y140510D01*
X17981Y140516D01*
X17895Y140526D01*
X17808Y140539D01*
X17723Y140557D01*
X17638Y140578D01*
X17554Y140603D01*
X17472Y140632D01*
X17391Y140665D01*
X17311Y140701D01*
X17233Y140740D01*
X17157Y140784D01*
X17083Y140830D01*
X17012Y140880D01*
X16942Y140933D01*
X16875Y140989D01*
X16811Y141048D01*
X16749Y141110D01*
X16690Y141174D01*
X16634Y141241D01*
X16581Y141311D01*
X16531Y141382D01*
X16485Y141456D01*
X16441Y141532D01*
X16402Y141610D01*
X16366Y141690D01*
X16333Y141771D01*
X16304Y141853D01*
X16279Y141937D01*
X16258Y142022D01*
X16240Y142107D01*
X16227Y142194D01*
X16217Y142280D01*
X16211Y142368D01*
X16209Y142455D01*
X16209Y145701D01*
X16211Y145802D01*
X16217Y145902D01*
X16227Y146002D01*
X16240Y146102D01*
X16258Y146201D01*
X16279Y146300D01*
X16304Y146397D01*
X16333Y146494D01*
X16366Y146589D01*
X16402Y146683D01*
X16442Y146775D01*
X16485Y146866D01*
X16532Y146955D01*
X16582Y147042D01*
X16636Y147128D01*
X16693Y147211D01*
X16753Y147291D01*
X16816Y147370D01*
X16883Y147446D01*
X16952Y147519D01*
X17024Y147589D01*
X17098Y147657D01*
X17175Y147722D01*
X17255Y147783D01*
X17337Y147842D01*
X17421Y147897D01*
X17507Y147949D01*
X17595Y147998D01*
X17685Y148043D01*
X17777Y148085D01*
X17870Y148123D01*
X17965Y148157D01*
X18060Y148188D01*
X18157Y148215D01*
X18255Y148238D01*
X18354Y148258D01*
X18454Y148273D01*
X18554Y148285D01*
X18654Y148293D01*
X18755Y148297D01*
X18855Y148297D01*
X18956Y148293D01*
X19056Y148285D01*
X19156Y148273D01*
X19256Y148258D01*
X19355Y148238D01*
X19453Y148215D01*
X19550Y148188D01*
X19645Y148157D01*
X19740Y148123D01*
X19833Y148085D01*
X19925Y148043D01*
X20015Y147998D01*
X20103Y147949D01*
X20189Y147897D01*
X20273Y147842D01*
X20355Y147783D01*
X20435Y147722D01*
X20512Y147657D01*
X20586Y147589D01*
X20658Y147519D01*
X20727Y147446D01*
X20794Y147370D01*
X20857Y147291D01*
X20917Y147211D01*
X20974Y147128D01*
X21028Y147042D01*
X21078Y146955D01*
X21125Y146866D01*
X21168Y146775D01*
X21208Y146683D01*
X21244Y146589D01*
X21277Y146494D01*
X21306Y146397D01*
X21331Y146300D01*
X21352Y146201D01*
X21370Y146102D01*
X21383Y146002D01*
X21393Y145902D01*
X21399Y145802D01*
X21401Y145701D01*
X21402Y145701D02*
X21402Y144403D01*
X16209Y144403D01*
X26496Y140508D02*
X26496Y148297D01*
X29742Y148297D01*
X29829Y148295D01*
X29917Y148289D01*
X30003Y148279D01*
X30090Y148266D01*
X30175Y148248D01*
X30260Y148227D01*
X30344Y148202D01*
X30426Y148173D01*
X30507Y148140D01*
X30587Y148104D01*
X30665Y148065D01*
X30741Y148021D01*
X30815Y147975D01*
X30886Y147925D01*
X30956Y147872D01*
X31023Y147816D01*
X31087Y147757D01*
X31149Y147696D01*
X31208Y147631D01*
X31264Y147564D01*
X31317Y147494D01*
X31367Y147423D01*
X31413Y147349D01*
X31457Y147273D01*
X31496Y147195D01*
X31532Y147115D01*
X31565Y147034D01*
X31594Y146952D01*
X31619Y146868D01*
X31640Y146783D01*
X31658Y146698D01*
X31671Y146611D01*
X31681Y146525D01*
X31687Y146437D01*
X31689Y146350D01*
X31689Y140508D01*
X38730Y140508D02*
X41976Y140508D01*
X38730Y140508D02*
X38643Y140510D01*
X38555Y140516D01*
X38469Y140526D01*
X38382Y140539D01*
X38297Y140557D01*
X38212Y140578D01*
X38128Y140603D01*
X38046Y140632D01*
X37965Y140665D01*
X37885Y140701D01*
X37807Y140740D01*
X37731Y140784D01*
X37657Y140830D01*
X37586Y140880D01*
X37516Y140933D01*
X37449Y140989D01*
X37385Y141048D01*
X37323Y141110D01*
X37264Y141174D01*
X37208Y141241D01*
X37155Y141311D01*
X37105Y141382D01*
X37059Y141456D01*
X37015Y141532D01*
X36976Y141610D01*
X36940Y141690D01*
X36907Y141771D01*
X36878Y141853D01*
X36853Y141937D01*
X36832Y142022D01*
X36814Y142107D01*
X36801Y142194D01*
X36791Y142280D01*
X36785Y142368D01*
X36783Y142455D01*
X36783Y145701D01*
X36785Y145802D01*
X36791Y145902D01*
X36801Y146002D01*
X36814Y146102D01*
X36832Y146201D01*
X36853Y146300D01*
X36878Y146397D01*
X36907Y146494D01*
X36940Y146589D01*
X36976Y146683D01*
X37016Y146775D01*
X37059Y146866D01*
X37106Y146955D01*
X37156Y147042D01*
X37210Y147128D01*
X37267Y147211D01*
X37327Y147291D01*
X37390Y147370D01*
X37457Y147446D01*
X37526Y147519D01*
X37598Y147589D01*
X37672Y147657D01*
X37749Y147722D01*
X37829Y147783D01*
X37911Y147842D01*
X37995Y147897D01*
X38081Y147949D01*
X38169Y147998D01*
X38259Y148043D01*
X38351Y148085D01*
X38444Y148123D01*
X38539Y148157D01*
X38634Y148188D01*
X38731Y148215D01*
X38829Y148238D01*
X38928Y148258D01*
X39028Y148273D01*
X39128Y148285D01*
X39228Y148293D01*
X39329Y148297D01*
X39429Y148297D01*
X39530Y148293D01*
X39630Y148285D01*
X39730Y148273D01*
X39830Y148258D01*
X39929Y148238D01*
X40027Y148215D01*
X40124Y148188D01*
X40219Y148157D01*
X40314Y148123D01*
X40407Y148085D01*
X40499Y148043D01*
X40589Y147998D01*
X40677Y147949D01*
X40763Y147897D01*
X40847Y147842D01*
X40929Y147783D01*
X41009Y147722D01*
X41086Y147657D01*
X41160Y147589D01*
X41232Y147519D01*
X41301Y147446D01*
X41368Y147370D01*
X41431Y147291D01*
X41491Y147211D01*
X41548Y147128D01*
X41602Y147042D01*
X41652Y146955D01*
X41699Y146866D01*
X41742Y146775D01*
X41782Y146683D01*
X41818Y146589D01*
X41851Y146494D01*
X41880Y146397D01*
X41905Y146300D01*
X41926Y146201D01*
X41944Y146102D01*
X41957Y146002D01*
X41967Y145902D01*
X41973Y145802D01*
X41975Y145701D01*
X41976Y145701D02*
X41976Y144403D01*
X36783Y144403D01*
X47136Y140508D02*
X47136Y148297D01*
X51031Y148297D01*
X51031Y146999D01*
X61449Y146999D02*
X64695Y146999D01*
X64695Y147000D02*
X64808Y146998D01*
X64921Y146992D01*
X65034Y146982D01*
X65147Y146968D01*
X65259Y146951D01*
X65370Y146929D01*
X65480Y146904D01*
X65590Y146874D01*
X65698Y146841D01*
X65805Y146804D01*
X65911Y146764D01*
X66015Y146719D01*
X66118Y146671D01*
X66219Y146620D01*
X66318Y146565D01*
X66415Y146507D01*
X66510Y146445D01*
X66603Y146380D01*
X66693Y146312D01*
X66781Y146241D01*
X66867Y146166D01*
X66950Y146089D01*
X67030Y146009D01*
X67107Y145926D01*
X67182Y145840D01*
X67253Y145752D01*
X67321Y145662D01*
X67386Y145569D01*
X67448Y145474D01*
X67506Y145377D01*
X67561Y145278D01*
X67612Y145177D01*
X67660Y145074D01*
X67705Y144970D01*
X67745Y144864D01*
X67782Y144757D01*
X67815Y144649D01*
X67845Y144539D01*
X67870Y144429D01*
X67892Y144318D01*
X67909Y144206D01*
X67923Y144093D01*
X67933Y143980D01*
X67939Y143867D01*
X67941Y143754D01*
X67939Y143641D01*
X67933Y143528D01*
X67923Y143415D01*
X67909Y143302D01*
X67892Y143190D01*
X67870Y143079D01*
X67845Y142969D01*
X67815Y142859D01*
X67782Y142751D01*
X67745Y142644D01*
X67705Y142538D01*
X67660Y142434D01*
X67612Y142331D01*
X67561Y142230D01*
X67506Y142131D01*
X67448Y142034D01*
X67386Y141939D01*
X67321Y141846D01*
X67253Y141756D01*
X67182Y141668D01*
X67107Y141582D01*
X67030Y141499D01*
X66950Y141419D01*
X66867Y141342D01*
X66781Y141267D01*
X66693Y141196D01*
X66603Y141128D01*
X66510Y141063D01*
X66415Y141001D01*
X66318Y140943D01*
X66219Y140888D01*
X66118Y140837D01*
X66015Y140789D01*
X65911Y140744D01*
X65805Y140704D01*
X65698Y140667D01*
X65590Y140634D01*
X65480Y140604D01*
X65370Y140579D01*
X65259Y140557D01*
X65147Y140540D01*
X65034Y140526D01*
X64921Y140516D01*
X64808Y140510D01*
X64695Y140508D01*
X61449Y140508D01*
X61449Y152192D01*
X64695Y152192D01*
X64796Y152190D01*
X64896Y152184D01*
X64996Y152174D01*
X65096Y152161D01*
X65195Y152143D01*
X65294Y152122D01*
X65391Y152097D01*
X65488Y152068D01*
X65583Y152035D01*
X65677Y151999D01*
X65769Y151959D01*
X65860Y151916D01*
X65949Y151869D01*
X66036Y151819D01*
X66122Y151765D01*
X66205Y151708D01*
X66285Y151648D01*
X66364Y151585D01*
X66440Y151518D01*
X66513Y151449D01*
X66583Y151377D01*
X66651Y151303D01*
X66716Y151226D01*
X66777Y151146D01*
X66836Y151064D01*
X66891Y150980D01*
X66943Y150894D01*
X66992Y150806D01*
X67037Y150716D01*
X67079Y150624D01*
X67117Y150531D01*
X67151Y150436D01*
X67182Y150341D01*
X67209Y150244D01*
X67232Y150146D01*
X67252Y150047D01*
X67267Y149947D01*
X67279Y149847D01*
X67287Y149747D01*
X67291Y149646D01*
X67291Y149546D01*
X67287Y149445D01*
X67279Y149345D01*
X67267Y149245D01*
X67252Y149145D01*
X67232Y149046D01*
X67209Y148948D01*
X67182Y148851D01*
X67151Y148756D01*
X67117Y148661D01*
X67079Y148568D01*
X67037Y148476D01*
X66992Y148386D01*
X66943Y148298D01*
X66891Y148212D01*
X66836Y148128D01*
X66777Y148046D01*
X66716Y147966D01*
X66651Y147889D01*
X66583Y147815D01*
X66513Y147743D01*
X66440Y147674D01*
X66364Y147607D01*
X66285Y147544D01*
X66205Y147484D01*
X66122Y147427D01*
X66036Y147373D01*
X65949Y147323D01*
X65860Y147276D01*
X65769Y147233D01*
X65677Y147193D01*
X65583Y147157D01*
X65488Y147124D01*
X65391Y147095D01*
X65294Y147070D01*
X65195Y147049D01*
X65096Y147031D01*
X64996Y147018D01*
X64896Y147008D01*
X64796Y147002D01*
X64695Y147000D01*
X72329Y148946D02*
X72329Y143754D01*
X72328Y148946D02*
X72330Y149059D01*
X72336Y149172D01*
X72346Y149285D01*
X72360Y149398D01*
X72377Y149510D01*
X72399Y149621D01*
X72424Y149731D01*
X72454Y149841D01*
X72487Y149949D01*
X72524Y150056D01*
X72564Y150162D01*
X72609Y150266D01*
X72657Y150369D01*
X72708Y150470D01*
X72763Y150569D01*
X72821Y150666D01*
X72883Y150761D01*
X72948Y150854D01*
X73016Y150944D01*
X73087Y151032D01*
X73162Y151118D01*
X73239Y151201D01*
X73319Y151281D01*
X73402Y151358D01*
X73488Y151433D01*
X73576Y151504D01*
X73666Y151572D01*
X73759Y151637D01*
X73854Y151699D01*
X73951Y151757D01*
X74050Y151812D01*
X74151Y151863D01*
X74254Y151911D01*
X74358Y151956D01*
X74464Y151996D01*
X74571Y152033D01*
X74679Y152066D01*
X74789Y152096D01*
X74899Y152121D01*
X75010Y152143D01*
X75122Y152160D01*
X75235Y152174D01*
X75348Y152184D01*
X75461Y152190D01*
X75574Y152192D01*
X75687Y152190D01*
X75800Y152184D01*
X75913Y152174D01*
X76026Y152160D01*
X76138Y152143D01*
X76249Y152121D01*
X76359Y152096D01*
X76469Y152066D01*
X76577Y152033D01*
X76684Y151996D01*
X76790Y151956D01*
X76894Y151911D01*
X76997Y151863D01*
X77098Y151812D01*
X77197Y151757D01*
X77294Y151699D01*
X77389Y151637D01*
X77482Y151572D01*
X77572Y151504D01*
X77660Y151433D01*
X77746Y151358D01*
X77829Y151281D01*
X77909Y151201D01*
X77986Y151118D01*
X78061Y151032D01*
X78132Y150944D01*
X78200Y150854D01*
X78265Y150761D01*
X78327Y150666D01*
X78385Y150569D01*
X78440Y150470D01*
X78491Y150369D01*
X78539Y150266D01*
X78584Y150162D01*
X78624Y150056D01*
X78661Y149949D01*
X78694Y149841D01*
X78724Y149731D01*
X78749Y149621D01*
X78771Y149510D01*
X78788Y149398D01*
X78802Y149285D01*
X78812Y149172D01*
X78818Y149059D01*
X78820Y148946D01*
X78820Y143754D01*
X78818Y143641D01*
X78812Y143528D01*
X78802Y143415D01*
X78788Y143302D01*
X78771Y143190D01*
X78749Y143079D01*
X78724Y142969D01*
X78694Y142859D01*
X78661Y142751D01*
X78624Y142644D01*
X78584Y142538D01*
X78539Y142434D01*
X78491Y142331D01*
X78440Y142230D01*
X78385Y142131D01*
X78327Y142034D01*
X78265Y141939D01*
X78200Y141846D01*
X78132Y141756D01*
X78061Y141668D01*
X77986Y141582D01*
X77909Y141499D01*
X77829Y141419D01*
X77746Y141342D01*
X77660Y141267D01*
X77572Y141196D01*
X77482Y141128D01*
X77389Y141063D01*
X77294Y141001D01*
X77197Y140943D01*
X77098Y140888D01*
X76997Y140837D01*
X76894Y140789D01*
X76790Y140744D01*
X76684Y140704D01*
X76577Y140667D01*
X76469Y140634D01*
X76359Y140604D01*
X76249Y140579D01*
X76138Y140557D01*
X76026Y140540D01*
X75913Y140526D01*
X75800Y140516D01*
X75687Y140510D01*
X75574Y140508D01*
X75461Y140510D01*
X75348Y140516D01*
X75235Y140526D01*
X75122Y140540D01*
X75010Y140557D01*
X74899Y140579D01*
X74789Y140604D01*
X74679Y140634D01*
X74571Y140667D01*
X74464Y140704D01*
X74358Y140744D01*
X74254Y140789D01*
X74151Y140837D01*
X74050Y140888D01*
X73951Y140943D01*
X73854Y141001D01*
X73759Y141063D01*
X73666Y141128D01*
X73576Y141196D01*
X73488Y141267D01*
X73402Y141342D01*
X73319Y141419D01*
X73239Y141499D01*
X73162Y141582D01*
X73087Y141668D01*
X73016Y141756D01*
X72948Y141846D01*
X72883Y141939D01*
X72821Y142034D01*
X72763Y142131D01*
X72708Y142230D01*
X72657Y142331D01*
X72609Y142434D01*
X72564Y142538D01*
X72524Y142644D01*
X72487Y142751D01*
X72454Y142859D01*
X72424Y142969D01*
X72399Y143079D01*
X72377Y143190D01*
X72360Y143302D01*
X72346Y143415D01*
X72336Y143528D01*
X72330Y143641D01*
X72328Y143754D01*
X86242Y140508D02*
X86242Y152192D01*
X82997Y152192D02*
X89488Y152192D01*
X284403Y140508D02*
X284502Y140510D01*
X284602Y140516D01*
X284701Y140525D01*
X284799Y140538D01*
X284897Y140555D01*
X284995Y140576D01*
X285091Y140601D01*
X285186Y140629D01*
X285280Y140661D01*
X285373Y140696D01*
X285465Y140735D01*
X285555Y140778D01*
X285643Y140823D01*
X285730Y140873D01*
X285814Y140925D01*
X285897Y140981D01*
X285977Y141039D01*
X286055Y141101D01*
X286130Y141166D01*
X286203Y141234D01*
X286273Y141304D01*
X286341Y141377D01*
X286406Y141452D01*
X286468Y141530D01*
X286526Y141610D01*
X286582Y141693D01*
X286634Y141777D01*
X286684Y141864D01*
X286729Y141952D01*
X286772Y142042D01*
X286811Y142134D01*
X286846Y142227D01*
X286878Y142321D01*
X286906Y142416D01*
X286931Y142512D01*
X286952Y142610D01*
X286969Y142708D01*
X286982Y142806D01*
X286991Y142905D01*
X286997Y143005D01*
X286999Y143104D01*
X284403Y140508D02*
X284259Y140510D01*
X284114Y140516D01*
X283970Y140525D01*
X283827Y140538D01*
X283683Y140555D01*
X283540Y140576D01*
X283398Y140601D01*
X283257Y140629D01*
X283116Y140661D01*
X282976Y140697D01*
X282837Y140736D01*
X282699Y140779D01*
X282563Y140826D01*
X282427Y140876D01*
X282293Y140930D01*
X282161Y140987D01*
X282030Y141048D01*
X281901Y141112D01*
X281773Y141180D01*
X281647Y141250D01*
X281523Y141325D01*
X281402Y141402D01*
X281282Y141483D01*
X281164Y141566D01*
X281049Y141653D01*
X280936Y141743D01*
X280825Y141836D01*
X280717Y141931D01*
X280611Y142030D01*
X280508Y142131D01*
X280833Y149596D02*
X280835Y149695D01*
X280841Y149795D01*
X280850Y149894D01*
X280863Y149992D01*
X280880Y150090D01*
X280901Y150188D01*
X280926Y150284D01*
X280954Y150379D01*
X280986Y150473D01*
X281021Y150566D01*
X281060Y150658D01*
X281103Y150748D01*
X281148Y150836D01*
X281198Y150923D01*
X281250Y151007D01*
X281306Y151090D01*
X281364Y151170D01*
X281426Y151248D01*
X281491Y151323D01*
X281559Y151396D01*
X281629Y151466D01*
X281702Y151534D01*
X281777Y151599D01*
X281855Y151661D01*
X281935Y151719D01*
X282018Y151775D01*
X282102Y151827D01*
X282189Y151877D01*
X282277Y151922D01*
X282367Y151965D01*
X282459Y152004D01*
X282552Y152039D01*
X282646Y152071D01*
X282741Y152099D01*
X282838Y152124D01*
X282935Y152145D01*
X283033Y152162D01*
X283131Y152175D01*
X283230Y152184D01*
X283330Y152190D01*
X283429Y152192D01*
X283565Y152190D01*
X283701Y152184D01*
X283837Y152175D01*
X283973Y152162D01*
X284108Y152144D01*
X284242Y152124D01*
X284376Y152099D01*
X284510Y152071D01*
X284642Y152038D01*
X284773Y152003D01*
X284904Y151963D01*
X285033Y151920D01*
X285161Y151874D01*
X285287Y151823D01*
X285413Y151770D01*
X285536Y151712D01*
X285658Y151652D01*
X285778Y151588D01*
X285897Y151520D01*
X286013Y151450D01*
X286127Y151376D01*
X286240Y151299D01*
X286350Y151218D01*
X282131Y147324D02*
X282045Y147377D01*
X281961Y147434D01*
X281879Y147493D01*
X281799Y147556D01*
X281722Y147622D01*
X281647Y147690D01*
X281575Y147762D01*
X281506Y147836D01*
X281440Y147913D01*
X281377Y147992D01*
X281317Y148074D01*
X281260Y148158D01*
X281206Y148244D01*
X281156Y148332D01*
X281109Y148422D01*
X281065Y148513D01*
X281026Y148607D01*
X280989Y148701D01*
X280957Y148797D01*
X280928Y148895D01*
X280903Y148993D01*
X280882Y149092D01*
X280864Y149192D01*
X280851Y149292D01*
X280841Y149393D01*
X280835Y149495D01*
X280833Y149596D01*
X285701Y145376D02*
X285787Y145323D01*
X285871Y145266D01*
X285953Y145207D01*
X286033Y145144D01*
X286110Y145078D01*
X286185Y145010D01*
X286257Y144938D01*
X286326Y144864D01*
X286392Y144787D01*
X286455Y144708D01*
X286515Y144626D01*
X286572Y144542D01*
X286626Y144456D01*
X286676Y144368D01*
X286723Y144278D01*
X286767Y144187D01*
X286806Y144093D01*
X286843Y143999D01*
X286875Y143903D01*
X286904Y143805D01*
X286929Y143707D01*
X286950Y143608D01*
X286968Y143508D01*
X286981Y143408D01*
X286991Y143307D01*
X286997Y143205D01*
X286999Y143104D01*
X285701Y145376D02*
X282131Y147324D01*
X290477Y148297D02*
X294371Y148297D01*
X291775Y152192D02*
X291775Y142455D01*
X291777Y142368D01*
X291783Y142280D01*
X291793Y142194D01*
X291806Y142107D01*
X291824Y142022D01*
X291845Y141937D01*
X291870Y141853D01*
X291899Y141771D01*
X291932Y141690D01*
X291968Y141610D01*
X292007Y141532D01*
X292051Y141456D01*
X292097Y141382D01*
X292147Y141311D01*
X292200Y141241D01*
X292256Y141174D01*
X292315Y141110D01*
X292377Y141048D01*
X292441Y140989D01*
X292508Y140933D01*
X292578Y140880D01*
X292649Y140830D01*
X292723Y140784D01*
X292799Y140740D01*
X292877Y140701D01*
X292957Y140665D01*
X293038Y140632D01*
X293120Y140603D01*
X293204Y140578D01*
X293289Y140557D01*
X293374Y140539D01*
X293461Y140526D01*
X293547Y140516D01*
X293635Y140510D01*
X293722Y140508D01*
X294371Y140508D01*
X298612Y140508D02*
X298612Y148297D01*
X298288Y151543D02*
X298288Y152192D01*
X298937Y152192D01*
X298937Y151543D01*
X298288Y151543D01*
X303882Y150245D02*
X303882Y140508D01*
X303882Y150245D02*
X303884Y150332D01*
X303890Y150420D01*
X303900Y150506D01*
X303913Y150593D01*
X303931Y150678D01*
X303952Y150763D01*
X303977Y150847D01*
X304006Y150929D01*
X304039Y151010D01*
X304075Y151090D01*
X304114Y151168D01*
X304158Y151244D01*
X304204Y151318D01*
X304254Y151389D01*
X304307Y151459D01*
X304363Y151526D01*
X304422Y151590D01*
X304483Y151652D01*
X304548Y151711D01*
X304615Y151767D01*
X304685Y151820D01*
X304756Y151870D01*
X304830Y151916D01*
X304906Y151960D01*
X304984Y151999D01*
X305064Y152035D01*
X305145Y152068D01*
X305227Y152097D01*
X305311Y152122D01*
X305396Y152143D01*
X305481Y152161D01*
X305568Y152174D01*
X305654Y152184D01*
X305742Y152190D01*
X305829Y152192D01*
X306478Y152192D01*
X306478Y148297D02*
X302583Y148297D01*
X310359Y150245D02*
X310359Y140508D01*
X310359Y150245D02*
X310361Y150332D01*
X310367Y150420D01*
X310377Y150506D01*
X310390Y150593D01*
X310408Y150678D01*
X310429Y150763D01*
X310454Y150847D01*
X310483Y150929D01*
X310516Y151010D01*
X310552Y151090D01*
X310591Y151168D01*
X310635Y151244D01*
X310681Y151318D01*
X310731Y151389D01*
X310784Y151459D01*
X310840Y151526D01*
X310899Y151590D01*
X310960Y151652D01*
X311025Y151711D01*
X311092Y151767D01*
X311162Y151820D01*
X311233Y151870D01*
X311307Y151916D01*
X311383Y151960D01*
X311461Y151999D01*
X311541Y152035D01*
X311622Y152068D01*
X311704Y152097D01*
X311788Y152122D01*
X311873Y152143D01*
X311958Y152161D01*
X312045Y152174D01*
X312131Y152184D01*
X312219Y152190D01*
X312306Y152192D01*
X312955Y152192D01*
X312955Y148297D02*
X309060Y148297D01*
X318156Y140508D02*
X321402Y140508D01*
X318156Y140508D02*
X318069Y140510D01*
X317981Y140516D01*
X317895Y140526D01*
X317808Y140539D01*
X317723Y140557D01*
X317638Y140578D01*
X317554Y140603D01*
X317472Y140632D01*
X317391Y140665D01*
X317311Y140701D01*
X317233Y140740D01*
X317157Y140784D01*
X317083Y140830D01*
X317012Y140880D01*
X316942Y140933D01*
X316875Y140989D01*
X316811Y141048D01*
X316749Y141110D01*
X316690Y141174D01*
X316634Y141241D01*
X316581Y141311D01*
X316531Y141382D01*
X316485Y141456D01*
X316441Y141532D01*
X316402Y141610D01*
X316366Y141690D01*
X316333Y141771D01*
X316304Y141853D01*
X316279Y141937D01*
X316258Y142022D01*
X316240Y142107D01*
X316227Y142194D01*
X316217Y142280D01*
X316211Y142368D01*
X316209Y142455D01*
X316209Y145701D01*
X316211Y145802D01*
X316217Y145902D01*
X316227Y146002D01*
X316240Y146102D01*
X316258Y146201D01*
X316279Y146300D01*
X316304Y146397D01*
X316333Y146494D01*
X316366Y146589D01*
X316402Y146683D01*
X316442Y146775D01*
X316485Y146866D01*
X316532Y146955D01*
X316582Y147042D01*
X316636Y147128D01*
X316693Y147211D01*
X316753Y147291D01*
X316816Y147370D01*
X316883Y147446D01*
X316952Y147519D01*
X317024Y147589D01*
X317098Y147657D01*
X317175Y147722D01*
X317255Y147783D01*
X317337Y147842D01*
X317421Y147897D01*
X317507Y147949D01*
X317595Y147998D01*
X317685Y148043D01*
X317777Y148085D01*
X317870Y148123D01*
X317965Y148157D01*
X318060Y148188D01*
X318157Y148215D01*
X318255Y148238D01*
X318354Y148258D01*
X318454Y148273D01*
X318554Y148285D01*
X318654Y148293D01*
X318755Y148297D01*
X318855Y148297D01*
X318956Y148293D01*
X319056Y148285D01*
X319156Y148273D01*
X319256Y148258D01*
X319355Y148238D01*
X319453Y148215D01*
X319550Y148188D01*
X319645Y148157D01*
X319740Y148123D01*
X319833Y148085D01*
X319925Y148043D01*
X320015Y147998D01*
X320103Y147949D01*
X320189Y147897D01*
X320273Y147842D01*
X320355Y147783D01*
X320435Y147722D01*
X320512Y147657D01*
X320586Y147589D01*
X320658Y147519D01*
X320727Y147446D01*
X320794Y147370D01*
X320857Y147291D01*
X320917Y147211D01*
X320974Y147128D01*
X321028Y147042D01*
X321078Y146955D01*
X321125Y146866D01*
X321168Y146775D01*
X321208Y146683D01*
X321244Y146589D01*
X321277Y146494D01*
X321306Y146397D01*
X321331Y146300D01*
X321352Y146201D01*
X321370Y146102D01*
X321383Y146002D01*
X321393Y145902D01*
X321399Y145802D01*
X321401Y145701D01*
X321402Y145701D02*
X321402Y144403D01*
X316209Y144403D01*
X326496Y140508D02*
X326496Y148297D01*
X329742Y148297D01*
X329829Y148295D01*
X329917Y148289D01*
X330003Y148279D01*
X330090Y148266D01*
X330175Y148248D01*
X330260Y148227D01*
X330344Y148202D01*
X330426Y148173D01*
X330507Y148140D01*
X330587Y148104D01*
X330665Y148065D01*
X330741Y148021D01*
X330815Y147975D01*
X330886Y147925D01*
X330956Y147872D01*
X331023Y147816D01*
X331087Y147757D01*
X331149Y147696D01*
X331208Y147631D01*
X331264Y147564D01*
X331317Y147494D01*
X331367Y147423D01*
X331413Y147349D01*
X331457Y147273D01*
X331496Y147195D01*
X331532Y147115D01*
X331565Y147034D01*
X331594Y146952D01*
X331619Y146868D01*
X331640Y146783D01*
X331658Y146698D01*
X331671Y146611D01*
X331681Y146525D01*
X331687Y146437D01*
X331689Y146350D01*
X331689Y140508D01*
X338730Y140508D02*
X341976Y140508D01*
X338730Y140508D02*
X338643Y140510D01*
X338555Y140516D01*
X338469Y140526D01*
X338382Y140539D01*
X338297Y140557D01*
X338212Y140578D01*
X338128Y140603D01*
X338046Y140632D01*
X337965Y140665D01*
X337885Y140701D01*
X337807Y140740D01*
X337731Y140784D01*
X337657Y140830D01*
X337586Y140880D01*
X337516Y140933D01*
X337449Y140989D01*
X337385Y141048D01*
X337323Y141110D01*
X337264Y141174D01*
X337208Y141241D01*
X337155Y141311D01*
X337105Y141382D01*
X337059Y141456D01*
X337015Y141532D01*
X336976Y141610D01*
X336940Y141690D01*
X336907Y141771D01*
X336878Y141853D01*
X336853Y141937D01*
X336832Y142022D01*
X336814Y142107D01*
X336801Y142194D01*
X336791Y142280D01*
X336785Y142368D01*
X336783Y142455D01*
X336783Y145701D01*
X336785Y145802D01*
X336791Y145902D01*
X336801Y146002D01*
X336814Y146102D01*
X336832Y146201D01*
X336853Y146300D01*
X336878Y146397D01*
X336907Y146494D01*
X336940Y146589D01*
X336976Y146683D01*
X337016Y146775D01*
X337059Y146866D01*
X337106Y146955D01*
X337156Y147042D01*
X337210Y147128D01*
X337267Y147211D01*
X337327Y147291D01*
X337390Y147370D01*
X337457Y147446D01*
X337526Y147519D01*
X337598Y147589D01*
X337672Y147657D01*
X337749Y147722D01*
X337829Y147783D01*
X337911Y147842D01*
X337995Y147897D01*
X338081Y147949D01*
X338169Y147998D01*
X338259Y148043D01*
X338351Y148085D01*
X338444Y148123D01*
X338539Y148157D01*
X338634Y148188D01*
X338731Y148215D01*
X338829Y148238D01*
X338928Y148258D01*
X339028Y148273D01*
X339128Y148285D01*
X339228Y148293D01*
X339329Y148297D01*
X339429Y148297D01*
X339530Y148293D01*
X339630Y148285D01*
X339730Y148273D01*
X339830Y148258D01*
X339929Y148238D01*
X340027Y148215D01*
X340124Y148188D01*
X340219Y148157D01*
X340314Y148123D01*
X340407Y148085D01*
X340499Y148043D01*
X340589Y147998D01*
X340677Y147949D01*
X340763Y147897D01*
X340847Y147842D01*
X340929Y147783D01*
X341009Y147722D01*
X341086Y147657D01*
X341160Y147589D01*
X341232Y147519D01*
X341301Y147446D01*
X341368Y147370D01*
X341431Y147291D01*
X341491Y147211D01*
X341548Y147128D01*
X341602Y147042D01*
X341652Y146955D01*
X341699Y146866D01*
X341742Y146775D01*
X341782Y146683D01*
X341818Y146589D01*
X341851Y146494D01*
X341880Y146397D01*
X341905Y146300D01*
X341926Y146201D01*
X341944Y146102D01*
X341957Y146002D01*
X341967Y145902D01*
X341973Y145802D01*
X341975Y145701D01*
X341976Y145701D02*
X341976Y144403D01*
X336783Y144403D01*
X347136Y140508D02*
X347136Y148297D01*
X351031Y148297D01*
X351031Y146999D01*
X361449Y146999D02*
X364695Y146999D01*
X364695Y147000D02*
X364808Y146998D01*
X364921Y146992D01*
X365034Y146982D01*
X365147Y146968D01*
X365259Y146951D01*
X365370Y146929D01*
X365480Y146904D01*
X365590Y146874D01*
X365698Y146841D01*
X365805Y146804D01*
X365911Y146764D01*
X366015Y146719D01*
X366118Y146671D01*
X366219Y146620D01*
X366318Y146565D01*
X366415Y146507D01*
X366510Y146445D01*
X366603Y146380D01*
X366693Y146312D01*
X366781Y146241D01*
X366867Y146166D01*
X366950Y146089D01*
X367030Y146009D01*
X367107Y145926D01*
X367182Y145840D01*
X367253Y145752D01*
X367321Y145662D01*
X367386Y145569D01*
X367448Y145474D01*
X367506Y145377D01*
X367561Y145278D01*
X367612Y145177D01*
X367660Y145074D01*
X367705Y144970D01*
X367745Y144864D01*
X367782Y144757D01*
X367815Y144649D01*
X367845Y144539D01*
X367870Y144429D01*
X367892Y144318D01*
X367909Y144206D01*
X367923Y144093D01*
X367933Y143980D01*
X367939Y143867D01*
X367941Y143754D01*
X367939Y143641D01*
X367933Y143528D01*
X367923Y143415D01*
X367909Y143302D01*
X367892Y143190D01*
X367870Y143079D01*
X367845Y142969D01*
X367815Y142859D01*
X367782Y142751D01*
X367745Y142644D01*
X367705Y142538D01*
X367660Y142434D01*
X367612Y142331D01*
X367561Y142230D01*
X367506Y142131D01*
X367448Y142034D01*
X367386Y141939D01*
X367321Y141846D01*
X367253Y141756D01*
X367182Y141668D01*
X367107Y141582D01*
X367030Y141499D01*
X366950Y141419D01*
X366867Y141342D01*
X366781Y141267D01*
X366693Y141196D01*
X366603Y141128D01*
X366510Y141063D01*
X366415Y141001D01*
X366318Y140943D01*
X366219Y140888D01*
X366118Y140837D01*
X366015Y140789D01*
X365911Y140744D01*
X365805Y140704D01*
X365698Y140667D01*
X365590Y140634D01*
X365480Y140604D01*
X365370Y140579D01*
X365259Y140557D01*
X365147Y140540D01*
X365034Y140526D01*
X364921Y140516D01*
X364808Y140510D01*
X364695Y140508D01*
X361449Y140508D01*
X361449Y152192D01*
X364695Y152192D01*
X364796Y152190D01*
X364896Y152184D01*
X364996Y152174D01*
X365096Y152161D01*
X365195Y152143D01*
X365294Y152122D01*
X365391Y152097D01*
X365488Y152068D01*
X365583Y152035D01*
X365677Y151999D01*
X365769Y151959D01*
X365860Y151916D01*
X365949Y151869D01*
X366036Y151819D01*
X366122Y151765D01*
X366205Y151708D01*
X366285Y151648D01*
X366364Y151585D01*
X366440Y151518D01*
X366513Y151449D01*
X366583Y151377D01*
X366651Y151303D01*
X366716Y151226D01*
X366777Y151146D01*
X366836Y151064D01*
X366891Y150980D01*
X366943Y150894D01*
X366992Y150806D01*
X367037Y150716D01*
X367079Y150624D01*
X367117Y150531D01*
X367151Y150436D01*
X367182Y150341D01*
X367209Y150244D01*
X367232Y150146D01*
X367252Y150047D01*
X367267Y149947D01*
X367279Y149847D01*
X367287Y149747D01*
X367291Y149646D01*
X367291Y149546D01*
X367287Y149445D01*
X367279Y149345D01*
X367267Y149245D01*
X367252Y149145D01*
X367232Y149046D01*
X367209Y148948D01*
X367182Y148851D01*
X367151Y148756D01*
X367117Y148661D01*
X367079Y148568D01*
X367037Y148476D01*
X366992Y148386D01*
X366943Y148298D01*
X366891Y148212D01*
X366836Y148128D01*
X366777Y148046D01*
X366716Y147966D01*
X366651Y147889D01*
X366583Y147815D01*
X366513Y147743D01*
X366440Y147674D01*
X366364Y147607D01*
X366285Y147544D01*
X366205Y147484D01*
X366122Y147427D01*
X366036Y147373D01*
X365949Y147323D01*
X365860Y147276D01*
X365769Y147233D01*
X365677Y147193D01*
X365583Y147157D01*
X365488Y147124D01*
X365391Y147095D01*
X365294Y147070D01*
X365195Y147049D01*
X365096Y147031D01*
X364996Y147018D01*
X364896Y147008D01*
X364796Y147002D01*
X364695Y147000D01*
X372329Y148946D02*
X372329Y143754D01*
X372328Y148946D02*
X372330Y149059D01*
X372336Y149172D01*
X372346Y149285D01*
X372360Y149398D01*
X372377Y149510D01*
X372399Y149621D01*
X372424Y149731D01*
X372454Y149841D01*
X372487Y149949D01*
X372524Y150056D01*
X372564Y150162D01*
X372609Y150266D01*
X372657Y150369D01*
X372708Y150470D01*
X372763Y150569D01*
X372821Y150666D01*
X372883Y150761D01*
X372948Y150854D01*
X373016Y150944D01*
X373087Y151032D01*
X373162Y151118D01*
X373239Y151201D01*
X373319Y151281D01*
X373402Y151358D01*
X373488Y151433D01*
X373576Y151504D01*
X373666Y151572D01*
X373759Y151637D01*
X373854Y151699D01*
X373951Y151757D01*
X374050Y151812D01*
X374151Y151863D01*
X374254Y151911D01*
X374358Y151956D01*
X374464Y151996D01*
X374571Y152033D01*
X374679Y152066D01*
X374789Y152096D01*
X374899Y152121D01*
X375010Y152143D01*
X375122Y152160D01*
X375235Y152174D01*
X375348Y152184D01*
X375461Y152190D01*
X375574Y152192D01*
X375687Y152190D01*
X375800Y152184D01*
X375913Y152174D01*
X376026Y152160D01*
X376138Y152143D01*
X376249Y152121D01*
X376359Y152096D01*
X376469Y152066D01*
X376577Y152033D01*
X376684Y151996D01*
X376790Y151956D01*
X376894Y151911D01*
X376997Y151863D01*
X377098Y151812D01*
X377197Y151757D01*
X377294Y151699D01*
X377389Y151637D01*
X377482Y151572D01*
X377572Y151504D01*
X377660Y151433D01*
X377746Y151358D01*
X377829Y151281D01*
X377909Y151201D01*
X377986Y151118D01*
X378061Y151032D01*
X378132Y150944D01*
X378200Y150854D01*
X378265Y150761D01*
X378327Y150666D01*
X378385Y150569D01*
X378440Y150470D01*
X378491Y150369D01*
X378539Y150266D01*
X378584Y150162D01*
X378624Y150056D01*
X378661Y149949D01*
X378694Y149841D01*
X378724Y149731D01*
X378749Y149621D01*
X378771Y149510D01*
X378788Y149398D01*
X378802Y149285D01*
X378812Y149172D01*
X378818Y149059D01*
X378820Y148946D01*
X378820Y143754D01*
X378818Y143641D01*
X378812Y143528D01*
X378802Y143415D01*
X378788Y143302D01*
X378771Y143190D01*
X378749Y143079D01*
X378724Y142969D01*
X378694Y142859D01*
X378661Y142751D01*
X378624Y142644D01*
X378584Y142538D01*
X378539Y142434D01*
X378491Y142331D01*
X378440Y142230D01*
X378385Y142131D01*
X378327Y142034D01*
X378265Y141939D01*
X378200Y141846D01*
X378132Y141756D01*
X378061Y141668D01*
X377986Y141582D01*
X377909Y141499D01*
X377829Y141419D01*
X377746Y141342D01*
X377660Y141267D01*
X377572Y141196D01*
X377482Y141128D01*
X377389Y141063D01*
X377294Y141001D01*
X377197Y140943D01*
X377098Y140888D01*
X376997Y140837D01*
X376894Y140789D01*
X376790Y140744D01*
X376684Y140704D01*
X376577Y140667D01*
X376469Y140634D01*
X376359Y140604D01*
X376249Y140579D01*
X376138Y140557D01*
X376026Y140540D01*
X375913Y140526D01*
X375800Y140516D01*
X375687Y140510D01*
X375574Y140508D01*
X375461Y140510D01*
X375348Y140516D01*
X375235Y140526D01*
X375122Y140540D01*
X375010Y140557D01*
X374899Y140579D01*
X374789Y140604D01*
X374679Y140634D01*
X374571Y140667D01*
X374464Y140704D01*
X374358Y140744D01*
X374254Y140789D01*
X374151Y140837D01*
X374050Y140888D01*
X373951Y140943D01*
X373854Y141001D01*
X373759Y141063D01*
X373666Y141128D01*
X373576Y141196D01*
X373488Y141267D01*
X373402Y141342D01*
X373319Y141419D01*
X373239Y141499D01*
X373162Y141582D01*
X373087Y141668D01*
X373016Y141756D01*
X372948Y141846D01*
X372883Y141939D01*
X372821Y142034D01*
X372763Y142131D01*
X372708Y142230D01*
X372657Y142331D01*
X372609Y142434D01*
X372564Y142538D01*
X372524Y142644D01*
X372487Y142751D01*
X372454Y142859D01*
X372424Y142969D01*
X372399Y143079D01*
X372377Y143190D01*
X372360Y143302D01*
X372346Y143415D01*
X372336Y143528D01*
X372330Y143641D01*
X372328Y143754D01*
X386242Y140508D02*
X386242Y152192D01*
X382997Y152192D02*
X389488Y152192D01*
M02*
